<?xml version="1.0" encoding="utf-8"?>
<!-- Generator: Adobe Illustrator 28.0.0, SVG Export Plug-In . SVG Version: 6.00 Build 0)  -->
<svg version="1.1"
	 id="Layer_1" xmlns:cc="http://creativecommons.org/ns#" xmlns:dc="http://purl.org/dc/elements/1.1/" xmlns:rdf="http://www.w3.org/1999/02/22-rdf-syntax-ns#"
	 xmlns="http://www.w3.org/2000/svg" xmlns:xlink="http://www.w3.org/1999/xlink" x="0px" y="0px" viewBox="0 0 153 153"
	 style="enable-background:new 0 0 153 153;" xml:space="preserve">
<style type="text/css">
	.st0{fill:#3466FE;}
	.st1{fill:#66CBFE;}
	.st2{fill:#3FBEFD;}
	.st3{fill:#1A86E9;}
	.st4{fill:#3440FE;}
	.st5{fill:#3398FE;}
</style>
<path class="st0" d="M76.1,35.7c0.3,0,0.6-0.1,1-0.1c0.2,0.3,0.4,0.6,0.7,0.7c5.7,4,11.5,8,17.2,12.1c4.5,3.2,8.9,6.4,13.4,9.5
	c0.4,0.3,1.4,0.3,1.8,0c9.1-6.2,18.1-12.4,27.2-18.7c1.5-1,2.9-2.2,4.4-3.3c0.1,0.7,0.3,1.3,0.3,2c0,18.4,0,36.8,0,55.2
	c0,1.2-0.3,1.9-1.5,2.7c-3.8,2.3-7.3,5.1-10.9,7.6c-3.8,2.6-7.6,5.1-11.3,7.6c-3,2.1-6,4.2-9,6.3c0-19.4,0-38.9,0-58.6
	c-0.7,0.4-1.1,0.6-1.4,0.8c-5.2,3.6-10.4,7.2-15.6,10.7C87,73.8,81.7,77.4,76.5,81c-10.8-7.4-21.6-14.9-32.4-22.3
	c0.3-0.3,0.5-0.8,0.8-1c8.2-5.7,16.4-11.4,24.6-17.1C71.7,39,73.9,37.3,76.1,35.7z"/>
<path class="st1" d="M42.9,116.6c-1.7-1.1-3.4-2.2-5.1-3.3c-4.7-3.2-9.3-6.4-14-9.6c-3.9-2.7-7.8-5.4-11.8-8
	c-0.9-0.6-1.2-1.3-1.1-2.3c0-18.7,0-37.4,0-56c0-0.6,0.4-1.1,0.6-1.7c0.6,0.6,1.1,1.3,1.8,1.8c7.8,5.4,15.5,10.7,23.3,16
	c2.4,1.7,4.7,3.5,7.1,5.2c0,10.4,0,20.8,0,31.2c0,8.3,0,16.6,0,24.9C43.7,115.4,43.2,116,42.9,116.6z"/>
<path class="st2" d="M42.9,116.6c0.3-0.6,0.8-1.2,0.8-1.8c0.1-8.3,0-16.6,0-24.9c0-10.4,0-20.8,0-31.2c0.1,0,0.2,0,0.3,0
	C54.9,66.1,65.7,73.6,76.5,81c0,18.8,0,37.7,0,56.5c0,0.7,0.2,1.4,0.4,2.1c-0.3,0-0.8,0.1-1,0c-4.1-2.8-8.1-5.5-12.1-8.3
	c-5.8-4-11.6-7.9-17.4-11.9C45.1,118.5,44.1,117.5,42.9,116.6z"/>
<path class="st3" d="M76.9,139.6c-0.1-0.7-0.4-1.4-0.4-2.1c0-18.8,0-37.7,0-56.5c5.3-3.6,10.5-7.2,15.8-10.8
	c5.2-3.6,10.4-7.2,15.6-10.7c0.4-0.2,0.8-0.4,1.4-0.8c0,19.7,0,39.1,0,58.6c-2,1.4-3.9,2.9-5.9,4.2c-2.9,2-5.8,3.9-8.7,5.8
	c-4,2.8-8.1,5.6-12.1,8.3C80.7,137,78.8,138.3,76.9,139.6z"/>
<path class="st4" d="M141.8,35.9c-1.5,1.1-2.9,2.3-4.4,3.3c-9,6.2-18.1,12.5-27.2,18.7c-0.4,0.3-1.4,0.3-1.8,0
	c-4.5-3.1-8.9-6.3-13.4-9.5c-5.7-4-11.5-8-17.2-12.1c-0.3-0.2-0.5-0.5-0.7-0.7c4.3-3,8.7-5.9,13-9c3.9-2.7,7.6-5.5,11.5-8.2
	c2.3-1.6,4.6-3.3,6.9-4.8c0.4-0.3,1.3-0.3,1.7,0c1.9,1.3,3.8,2.7,5.7,4.1c1.3,1,2.7,1.9,4,2.8c2.5,1.7,5,3.4,7.4,5.1
	c2.7,1.8,5.4,3.6,8.1,5.5C137.6,32.6,139.6,34.3,141.8,35.9z"/>
<path class="st5" d="M44.1,58.7c-0.1,0-0.2,0-0.3,0c-2.4-1.7-4.7-3.6-7.1-5.2c-7.7-5.4-15.5-10.7-23.3-16c-0.7-0.5-1.2-1.2-1.8-1.8
	c5.2-3.6,10.3-7.2,15.5-10.9c5-3.5,9.9-7,14.8-10.6c1.3-0.9,2.4-0.9,3.6,0c3.8,2.8,7.6,5.6,11.4,8.3c3.4,2.4,6.9,4.6,10.3,6.9
	c3,2.1,5.9,4.2,8.9,6.3c-2.2,1.6-4.4,3.3-6.7,4.9C61.3,46.3,53.1,52,44.9,57.7C44.5,57.9,44.3,58.3,44.1,58.7z"/>
</svg>
