<?xml version="1.0" encoding="UTF-8"?>
<svg id="Layer_1" xmlns="http://www.w3.org/2000/svg" xmlns:rdf="http://www.w3.org/1999/02/22-rdf-syntax-ns#" xmlns:dc="http://purl.org/dc/elements/1.1/" xmlns:cc="http://creativecommons.org/ns#" version="1.1" viewBox="0 0 153 153">
  <!-- Generator: Adobe Illustrator 29.0.1, SVG Export Plug-In . SVG Version: 2.1.0 Build 192)  -->
  <defs>
    <style>
      .st0 {
        fill: #1a86e9;
      }

      .st1 {
        fill: #3398fe;
      }

      .st2 {
        fill: #66cbfe;
      }

      .st3 {
        fill: #3fbefd;
      }

      .st4 {
        fill: #3440fe;
      }

      .st5 {
        fill: #3466fe;
      }
    </style>
  </defs>
  <path class="st5" d="M76.1,35.7c.3,0,.6,0,1,0,.2.3.4.6.7.7,5.7,4,11.5,8,17.2,12.1,4.5,3.2,8.9,6.4,13.4,9.5.4.3,1.4.3,1.8,0,9.1-6.2,18.1-12.4,27.2-18.7,1.5-1,2.9-2.2,4.4-3.3.1.7.3,1.3.3,2v55.2c0,1.2-.3,1.9-1.5,2.7-3.8,2.3-7.3,5.1-10.9,7.6-3.8,2.6-7.6,5.1-11.3,7.6-3,2.1-6,4.2-9,6.3v-58.6c-.7.4-1.1.6-1.4.8-5.2,3.6-10.4,7.2-15.6,10.7-5.4,3.6-10.7,7.2-15.9,10.8-10.8-7.4-21.6-14.9-32.4-22.3.3-.3.5-.8.8-1,8.2-5.7,16.4-11.4,24.6-17.1,2.2-1.6,4.4-3.3,6.6-4.9Z"/>
  <path class="st2" d="M42.9,116.6c-1.7-1.1-3.4-2.2-5.1-3.3-4.7-3.2-9.3-6.4-14-9.6-3.9-2.7-7.8-5.4-11.8-8-.9-.6-1.2-1.3-1.1-2.3v-56c0-.6.4-1.1.6-1.7.6.6,1.1,1.3,1.8,1.8,7.8,5.4,15.5,10.7,23.3,16,2.4,1.7,4.7,3.5,7.1,5.2v56.1c0,.6-.5,1.2-.8,1.8Z"/>
  <path class="st3" d="M42.9,116.6c.3-.6.8-1.2.8-1.8,0-8.3,0-16.6,0-24.9v-31.2h.3c10.9,7.4,21.7,14.9,32.5,22.3v56.5c0,.7.2,1.4.4,2.1-.3,0-.8.1-1,0-4.1-2.8-8.1-5.5-12.1-8.3-5.8-4-11.6-7.9-17.4-11.9-1.3-.9-2.3-1.9-3.5-2.8Z"/>
  <path class="st0" d="M76.9,139.6c0-.7-.4-1.4-.4-2.1v-56.5c5.3-3.6,10.5-7.2,15.8-10.8,5.2-3.6,10.4-7.2,15.6-10.7.4-.2.8-.4,1.4-.8v58.6c-2,1.4-3.9,2.9-5.9,4.2-2.9,2-5.8,3.9-8.7,5.8-4,2.8-8.1,5.6-12.1,8.3-1.9,1.4-3.8,2.7-5.7,4Z"/>
  <path class="st4" d="M141.8,35.9c-1.5,1.1-2.9,2.3-4.4,3.3-9,6.2-18.1,12.5-27.2,18.7-.4.3-1.4.3-1.8,0-4.5-3.1-8.9-6.3-13.4-9.5-5.7-4-11.5-8-17.2-12.1-.3-.2-.5-.5-.7-.7,4.3-3,8.7-5.9,13-9,3.9-2.7,7.6-5.5,11.5-8.2,2.3-1.6,4.6-3.3,6.9-4.8.4-.3,1.3-.3,1.7,0,1.9,1.3,3.8,2.7,5.7,4.1,1.3,1,2.7,1.9,4,2.8,2.5,1.7,5,3.4,7.4,5.1,2.7,1.8,5.4,3.6,8.1,5.5,2.2,1.5,4.2,3.2,6.4,4.8Z"/>
  <path class="st1" d="M44.1,58.7h-.3c-2.4-1.7-4.7-3.6-7.1-5.2-7.7-5.4-15.5-10.7-23.3-16-.7-.5-1.2-1.2-1.8-1.8,5.2-3.6,10.3-7.2,15.5-10.9,5-3.5,9.9-7,14.8-10.6,1.3-.9,2.4-.9,3.6,0,3.8,2.8,7.6,5.6,11.4,8.3,3.4,2.4,6.9,4.6,10.3,6.9,3,2.1,5.9,4.2,8.9,6.3-2.2,1.6-4.4,3.3-6.7,4.9-8.1,5.7-16.3,11.4-24.5,17.1-.4.2-.6.6-.8,1Z"/>
</svg>