<?xml version="1.0" encoding="utf-8"?>
<!-- Generator: Adobe Illustrator 27.7.0, SVG Export Plug-In . SVG Version: 6.00 Build 0)  -->
<svg version="1.1"
	 id="Layer_1" xmlns:cc="http://creativecommons.org/ns#" xmlns:rdf="http://www.w3.org/1999/02/22-rdf-syntax-ns#" xmlns:dc="http://purl.org/dc/elements/1.1/"
	 xmlns="http://www.w3.org/2000/svg" xmlns:xlink="http://www.w3.org/1999/xlink" x="0px" y="0px" viewBox="0 0 153 153"
	 style="enable-background:new 0 0 153 153;" xml:space="preserve">
<style type="text/css">
	.st0{fill:#8E0BFE;}
</style>
<path class="st0" d="M80.9,14c0.1,0.1,0.2,0.4,0.3,0.4c0.5,0.1,1,0.2,1.5,0.3c1.8,0.3,3.6,0.5,5.4,1c2.3,0.6,4.5,1.4,6.7,2.3
	c5.4,2.4,10,5.9,14.1,10.1c2.5,2.6,4.6,5.5,6.3,8.6c1.7,3,3.2,6.1,4,9.5c0.6,2.5,1,5,1.5,7.5c0.1,0.7,0.2,1.5,0.3,2.2
	c0.1,0.4,0.4,0.8,0.7,1.1c3.5,2.6,6.7,5.4,9.4,8.8c2.3,2.9,4.2,6.1,5.7,9.6c1.2,2.7,2.2,5.4,2.9,8.3c0.4,1.9,0.7,3.8,0.9,5.7
	c0.2,2.2,0.4,4.4,0.3,6.6c-0.1,3.3-0.5,6.5-1.6,9.6c-0.7,2-1.2,4.1-2,6.1c-1.2,3-2.7,5.8-4.6,8.4c-2.2,2.9-4.5,5.7-7.3,8.1
	c-4.2,3.5-8.8,6.3-14,8.1c-2.3,0.8-4.7,1.4-7,2c-0.9,0.2-1.8,0.3-2.7,0.4c-1.8,0.2-3.7,0.5-5.5,0.4c-1.8,0-3.7-0.3-5.5-0.6
	c-1.6-0.2-3.2-0.5-4.8-0.9c-2.9-0.7-5.8-1.7-8.4-3c-0.6-0.3-1.1-0.2-1.7,0.1c-3,1.5-6.2,2.7-9.5,3.3c-2,0.4-4.1,0.6-6.1,0.8
	c-1.1,0.1-2.3,0.3-3.4,0.3c-2.4-0.1-4.8-0.4-7.2-0.7c-1.9-0.3-3.9-0.7-5.8-1.3c-3.6-1.1-7-2.6-10.2-4.6c-3.3-2.1-6.4-4.4-9-7.3
	c-2.9-3.1-5.4-6.5-7.3-10.3c-1.1-2.2-2-4.4-2.8-6.7c-0.7-2.1-1.3-4.3-1.7-6.5c-0.3-1.4-0.4-2.9-0.5-4.4C12,95.1,12,93,12,91
	c0-1.1,0.2-2.2,0.4-3.3c0.3-1.5,0.5-3,0.9-4.4c0.4-1.6,0.8-3.2,1.4-4.7c1.4-3.7,3.3-7.2,5.6-10.4c2.9-4.1,6.4-7.6,10.4-10.6
	c0.8-0.6,1.2-1.2,1.3-2.1c0.3-2.2,0.6-4.5,1.1-6.6c0.4-1.8,0.9-3.6,1.6-5.3c2-5.6,5.1-10.6,9.1-14.9c3.5-3.8,7.6-7,12.2-9.4
	c3.9-2,8-3.4,12.4-4.2c1.7-0.3,3.5-0.5,5.2-0.7c0.2,0,0.3-0.2,0.5-0.2C76.3,14,78.6,14,80.9,14z M42.2,51.7c4.4-1.9,9-2.4,13.6-2.5
	c0.9,0,1.8,0.1,2.7,0.1c1.5,0.1,2.9,0.1,4.4,0.3c4.2,0.5,8.2,1.8,12.1,3.5c1.4,0.6,1.8,1.3,1.8,2.8c-0.1,4.9,0,9.8,0,14.7
	c0,0.2-0.1,0.5-0.3,0.6c-0.1,0.1-0.4-0.1-0.6-0.2c-0.5-0.3-0.9-0.6-1.4-0.9c-2.2-1.3-4.3-2.5-6.5-3.8c-0.5-0.3-0.8-0.7-0.8-1.4
	c0.1-1.4,0-2.7,0-4.1c0-0.2-0.2-0.6-0.4-0.7c-0.6-0.2-1.3-0.4-2-0.5c-1.4-0.2-2.8-0.4-4.2-0.6c-1.4-0.2-2.8-0.4-4.1-0.4
	c-1.3,0-2.6,0.1-3.9,0.3c-4,0.6-7.8,1.7-11.5,3.5c-5.3,2.7-9.8,6.3-13.1,11.3c-1.3,1.9-2.5,3.8-3.5,5.8c-0.8,1.8-1.3,3.7-1.9,5.6
	c-0.6,2.1-1,4.2-1,6.4c0,1.9,0,3.9,0.2,5.8c0.1,1.3,0.3,2.6,0.6,3.8c0.5,2.6,1.3,5,2.4,7.3c0.8,1.7,1.6,3.4,2.6,4.9
	c2.3,3.3,4.9,6.3,8.2,8.6c2.3,1.5,4.6,3.1,7,4.2c2.1,1,4.4,1.4,6.6,2c2,0.6,4.1,0.9,6.3,0.9c1.5,0,3-0.1,4.5-0.3
	c2.3-0.3,4.6-0.7,7.1-1.1c-0.2-0.4-0.3-0.6-0.5-0.8c-0.3-0.3-0.6-0.6-0.9-0.9c-2.9-2.8-5.6-5.9-7.5-9.5c-1.2-2.1-2.2-4.3-3.1-6.4
	c-0.6-1.5-1.1-3-1.5-4.5c-0.5-2-0.9-4-1.3-6c-0.2-1.1-0.2-2.2-0.3-3.4c5-2.8,10-5.8,15.3-8.6c0,0.6,0,1,0,1.3c0,3,0,5.9,0,8.9
	c0,0.5-0.2,0.9-0.6,1.1c-1.3,0.7-2.5,1.4-3.8,2.1c-0.5,0.3-0.7,0.5-0.4,1.1c0.2,0.5,0.3,1,0.5,1.5c1.1,4.2,3.1,8,5.7,11.4
	c4.8,6.2,10.9,10.5,18.4,12.7c2.5,0.7,5.1,1.3,7.8,1.3c2.1,0,4.2,0.1,6.3-0.2c2.3-0.3,4.6-1,6.9-1.7c1.8-0.6,3.7-1.3,5.4-2.2
	c3.8-2.1,7.2-4.7,10-8.1c3-3.5,5.3-7.3,6.7-11.7c0.8-2.5,1.5-5,1.6-7.6c0.1-2.6,0.2-5.1-0.1-7.7c-0.2-2-0.8-4-1.3-6
	c-0.6-2.9-1.8-5.7-3.4-8.1c-1.7-2.5-3.7-4.9-5.6-7.3c-0.2-0.2-0.4-0.3-0.8-0.6c-0.4,1.4-0.6,2.8-1,4c-1,2.8-2.1,5.5-3.4,8.2
	c-1.2,2.6-2.9,5-4.8,7.2c-2.6,3.2-5.6,5.9-8.9,8.4c-0.7,0.5-1.2,0.6-2,0.1c-4.2-2.5-8.5-4.9-12.8-7.3c-0.4-0.2-0.8-0.5-1.3-0.9
	c0.5-0.3,0.8-0.5,1.1-0.7c2.5-1.5,5-2.9,7.5-4.4c0.4-0.2,1-0.3,1.4-0.1c1.2,0.6,2.3,1.2,3.4,1.9c1,0.5,1,0.5,1.7-0.2
	c2.4-2.4,4.5-5.1,6.2-8c1.9-3.3,3.1-6.9,3.8-10.6c0.5-2.6,0.6-5.3,0.4-7.9c-0.1-2.4-0.5-4.8-1-7.1c-0.8-3.2-1.8-6.2-3.4-9
	c-1.7-3-4-5.6-6.5-8.1c-3.3-3.2-7.1-5.5-11.3-7.1c-3.3-1.3-6.6-2.2-10.1-2.4c-3.9-0.3-7.9,0.1-11.7,1.1c-6,1.6-11.1,4.8-15.6,9
	c-3.6,3.4-6.2,7.5-8.1,12c-0.7,1.6-1.1,3.3-1.6,5C42.1,51.2,42.1,51.4,42.2,51.7z"/>
</svg>
