<?xml version="1.0" encoding="utf-8"?>
<!-- Generator: Adobe Illustrator 27.5.0, SVG Export Plug-In . SVG Version: 6.00 Build 0)  -->
<svg version="1.1" id="Layer_1" xmlns="http://www.w3.org/2000/svg" xmlns:xlink="http://www.w3.org/1999/xlink" x="0px" y="0px"
	 viewBox="0 0 36 36" style="enable-background:new 0 0 36 36;" xml:space="preserve">
<style type="text/css">
	.st0{fill:#F45800;}
	.st1{fill:#FFFFFF;}
</style>
<path vector-effect="non-scaling-stroke" class="st0" d="M0,0v36h36V0H0z"/>
<path class="st1" d="M13.5,7.1v10.1c0,0,3.6,0,5.5-0.1c1.5-0.3,1.8-0.4,2.1-1.9l0.6-2.2h1.6L23,17.8l0.1,4.9h-1.6l-0.4-1.9
	c-0.4-1.4-1-1.6-2.1-1.8c-1.4-0.1-5.5-0.1-5.5-0.1v8.5c0,1.6,0.8,2.3,2.7,2.3H22c1.8,0,3.6-0.1,4.7-2.7l1.5-3.3h1.4
	c-0.1,0.7-0.8,6.7-1,8.1c0,0-5.2-0.1-7.4-0.1h-9.9l-5.9,0.1v-1.5l1.9-0.4c1.4-0.3,1.8-0.7,1.8-1.8c0,0,0.1-3.7,0.1-9.9
	c0-6.2-0.1-9.9-0.1-9.9c0-1.2-0.4-1.5-1.8-1.8L5.4,6.1V4.6l5.8,0.1h11c2.2,0,5.9-0.4,5.9-0.4s-0.1,2.3-0.3,7.8h-1.5l-0.6-1.9
	c-0.5-2.5-1.4-3.7-2.9-3.7h-8.6C13.5,6.5,13.5,6.7,13.5,7.1L13.5,7.1z"/>
</svg>
