<?xml version="1.0" encoding="UTF-8"?>
<svg id="Layer_1" xmlns="http://www.w3.org/2000/svg" xmlns:rdf="http://www.w3.org/1999/02/22-rdf-syntax-ns#" xmlns:dc="http://purl.org/dc/elements/1.1/" xmlns:cc="http://creativecommons.org/ns#" version="1.1" viewBox="0 0 153 153">
  <!-- Generator: Adobe Illustrator 29.0.1, SVG Export Plug-In . SVG Version: 2.1.0 Build 192)  -->
  <g id="iOuEym">
    <path d="M142.5,23.9l-.8,105.4-33.2,13.1c-10.8-2-21.1-7.9-31.6-11.4l-30.8,11.4-35.6-13.8.7-104.4,34.9-13.7,30.8,11.4c10.8-2.7,20.6-9.4,31.6-10.9l33.9,12.7ZM77.4,70.9V28.8l-30.8-12.2v43.5l30.8,10.9ZM138,70.9V28.8l-30.8-12.2v42.1l30.8,12.2ZM75.6,77.2c0-1.3-1.4-1.4-2.2-1.8-3.2-1.6-23.9-9.9-26.3-10-6.6-.3-23,9.5-30.3,11.4l29.4,11.4,29.4-10.9ZM78.3,77.2l29.3,10.8,28.6-11.3c0-1.6-27.5-11.5-29.4-11.4-2.9.1-22.7,8.2-26.3,10s-2.1.6-2.2,1.8ZM46.6,93.5l-30.8-10.9v42.1l30.8,12.2v-43.5ZM107.3,93.5l-30.8-10.9v42.1l30.8,12.2v-43.5Z"/>
  </g>
</svg>