<?xml version="1.0" encoding="utf-8"?>
<!-- Generator: Adobe Illustrator 27.7.0, SVG Export Plug-In . SVG Version: 6.00 Build 0)  -->
<svg version="1.1"
	 id="Layer_1" xmlns:cc="http://creativecommons.org/ns#" xmlns:rdf="http://www.w3.org/1999/02/22-rdf-syntax-ns#" xmlns:dc="http://purl.org/dc/elements/1.1/"
	 xmlns="http://www.w3.org/2000/svg" xmlns:xlink="http://www.w3.org/1999/xlink" x="0px" y="0px" viewBox="0 0 153 153"
	 style="enable-background:new 0 0 153 153;" xml:space="preserve">
<style type="text/css">
	.st0{fill:#00C7A4;}
</style>
<g id="_x33_ICUFL.tif">
	<g>
		<path class="st0" d="M136,18.1c0,39,0,77.9,0,116.9c-0.6,0.9-1.4,1-2.4,1c-14.6,0-29.2,0-43.8,0c-0.4,0-0.8,0-1.3,0
			c0-0.3-0.1-0.5-0.1-0.8c0-7.4,0-14.8-0.1-22.1c0-0.6,0.2-0.7,0.7-0.7c5.8,0,11.5,0,17.3,0c1.6,0,3.2,0,4.8,0.1c0.7,0,1-0.2,1-0.9
			c-0.1-0.6,0-1.2,0-1.8c0-17.3,0-34.5,0-51.8c0-1.5,0-3,0-4.5c-0.7-0.1-1.3-0.2-1.9-0.2c-6.9,0-13.8,0-20.6,0c-1,0-1,0-1,1
			c0,11.2,0,22.5,0,33.7c0,0.2,0,0.5-0.1,0.7c-0.9,0.1-1.8,0.2-2.7,0.2c-6.6,0-13.2,0-19.7,0c-1.4,0-1.4,0-1.4-1.5
			c0-11.1-0.1-22.2-0.1-33.3c0-0.6-0.2-0.9-0.8-0.9c-5,0-9.9,0-14.9,0c-2.4,0-4.7,0-7.1,0c-0.5,0-0.8,0.1-0.7,0.7c0,0.2,0,0.4,0,0.6
			c0,19,0,38,0,56.9c0,0.3,0,0.6,0.1,1c7.9,0,15.8,0,23.6,0c0,7.9,0,15.6,0,23.5c-0.3,0-0.6,0-0.8,0c-14.7,0-29.4,0-44.1,0
			c-1.2,0-1.8-0.5-2.3-1.7c-0.1-0.2-0.3-0.3-0.5-0.4c0-38.3,0-76.7,0-115c0.1,0.2,0.2,0.5,0.2,0.7c0,0.7,0,1.4,0,2.2
			c0,36.9,0,73.7,0,110.6c0,0.3,0,0.5,0,0.8c0.2-0.7,0.2-1.4,0.2-2.2c0-34.1,0-68.1,0-102.2c0-3.3,0-6.5,0-9.8c0-1,0.4-1.4,1.2-1.4
			c1.2-0.1,2.4,0,3.6,0c36.9,0,73.8,0,110.7,0c1,0,2-0.2,2.8,0.6C135.8,18.2,135.9,18.1,136,18.1z"/>
		<path class="st0" d="M132.6,17c-0.2,0-0.3,0-0.5,0C132.3,17,132.5,17,132.6,17z"/>
		<path class="st0" d="M77.5,17c-0.1,0-0.2,0-0.3,0C77.2,17,77.4,17,77.5,17z"/>
		<path class="st0" d="M106.9,17c-0.1,0-0.2,0-0.3,0C106.7,17,106.8,17,106.9,17z"/>
		<path class="st0" d="M53.1,17c-0.1,0-0.2,0-0.3,0C52.9,17,53,17,53.1,17z"/>
		<path class="st0" d="M53.8,17c-0.1,0-0.2,0-0.3,0C53.6,17,53.7,17,53.8,17z"/>
		<path class="st0" d="M26.9,17c-0.1,0-0.2,0-0.3,0C26.7,17,26.8,17,26.9,17z"/>
		<path class="st0" d="M27.6,17c-0.1,0-0.2,0-0.3,0C27.3,17,27.4,17,27.6,17z"/>
		<path class="st0" d="M28.2,17c-0.1,0-0.2,0-0.3,0C28,17,28.1,17,28.2,17z"/>
		<path class="st0" d="M28.8,17c-0.1,0-0.2,0-0.3,0C28.6,17,28.7,17,28.8,17z"/>
		<path class="st0" d="M29.5,17c-0.1,0-0.2,0-0.3,0C29.3,17,29.4,17,29.5,17z"/>
		<path class="st0" d="M30.1,17c-0.1,0-0.2,0-0.3,0C29.9,17,30,17,30.1,17z"/>
		<path class="st0" d="M30.8,17c-0.1,0-0.2,0-0.3,0C30.5,17,30.6,17,30.8,17z"/>
		<path class="st0" d="M31.4,17c-0.1,0-0.2,0-0.3,0C31.2,17,31.3,17,31.4,17z"/>
		<path class="st0" d="M32,17c-0.1,0-0.2,0-0.3,0C31.8,17,31.9,17,32,17z"/>
		<path class="st0" d="M32.7,17c-0.1,0-0.2,0-0.3,0C32.5,17,32.6,17,32.7,17z"/>
		<path class="st0" d="M33.3,17c-0.1,0-0.2,0-0.3,0C33.1,17,33.2,17,33.3,17z"/>
		<path class="st0" d="M34,17c-0.1,0-0.2,0-0.3,0C33.7,17,33.8,17,34,17z"/>
		<path class="st0" d="M34.6,17c-0.1,0-0.2,0-0.3,0C34.4,17,34.5,17,34.6,17z"/>
		<path class="st0" d="M35.2,17c-0.1,0-0.2,0-0.3,0C35,17,35.1,17,35.2,17z"/>
		<path class="st0" d="M35.9,17c-0.1,0-0.2,0-0.3,0C35.7,17,35.8,17,35.9,17z"/>
		<path class="st0" d="M36.5,17c-0.1,0-0.2,0-0.3,0C36.3,17,36.4,17,36.5,17z"/>
		<path class="st0" d="M37.2,17c-0.1,0-0.2,0-0.3,0C36.9,17,37,17,37.2,17z"/>
		<path class="st0" d="M37.8,17c-0.1,0-0.2,0-0.3,0C37.6,17,37.7,17,37.8,17z"/>
		<path class="st0" d="M38.4,17c-0.1,0-0.2,0-0.3,0C38.2,17,38.3,17,38.4,17z"/>
		<path class="st0" d="M39.1,17c-0.1,0-0.2,0-0.3,0C38.9,17,39,17,39.1,17z"/>
		<path class="st0" d="M39.7,17c-0.1,0-0.2,0-0.3,0C39.5,17,39.6,17,39.7,17z"/>
		<path class="st0" d="M40.4,17c-0.1,0-0.2,0-0.3,0C40.1,17,40.2,17,40.4,17z"/>
		<path class="st0" d="M41,17c-0.1,0-0.2,0-0.3,0C40.8,17,40.9,17,41,17z"/>
		<path class="st0" d="M41.6,17c-0.1,0-0.2,0-0.3,0C41.4,17,41.5,17,41.6,17z"/>
		<path class="st0" d="M42.3,17c-0.1,0-0.2,0-0.3,0C42.1,17,42.2,17,42.3,17z"/>
		<path class="st0" d="M42.9,17c-0.1,0-0.2,0-0.3,0C42.7,17,42.8,17,42.9,17z"/>
		<path class="st0" d="M43.6,17c-0.1,0-0.2,0-0.3,0C43.3,17,43.4,17,43.6,17z"/>
		<path class="st0" d="M44.2,17c-0.1,0-0.2,0-0.3,0C44,17,44.1,17,44.2,17z"/>
		<path class="st0" d="M44.8,17c-0.1,0-0.2,0-0.3,0C44.6,17,44.7,17,44.8,17z"/>
		<path class="st0" d="M45.5,17c-0.1,0-0.2,0-0.3,0C45.3,17,45.4,17,45.5,17z"/>
		<path class="st0" d="M46.1,17c-0.1,0-0.2,0-0.3,0C45.9,17,46,17,46.1,17z"/>
		<path class="st0" d="M46.8,17c-0.1,0-0.2,0-0.3,0C46.5,17,46.6,17,46.8,17z"/>
		<path class="st0" d="M47.4,17c-0.1,0-0.2,0-0.3,0C47.2,17,47.3,17,47.4,17z"/>
		<path class="st0" d="M48,17c-0.1,0-0.2,0-0.3,0C47.8,17,47.9,17,48,17z"/>
		<path class="st0" d="M48.7,17c-0.1,0-0.2,0-0.3,0C48.5,17,48.6,17,48.7,17z"/>
		<path class="st0" d="M49.3,17c-0.1,0-0.2,0-0.3,0C49.1,17,49.2,17,49.3,17z"/>
		<path class="st0" d="M49.9,17c-0.1,0-0.2,0-0.3,0C49.7,17,49.8,17,49.9,17z"/>
		<path class="st0" d="M50.6,17c-0.1,0-0.2,0-0.3,0C50.4,17,50.5,17,50.6,17z"/>
		<path class="st0" d="M51.2,17c-0.1,0-0.2,0-0.3,0C51,17,51.1,17,51.2,17z"/>
		<path class="st0" d="M51.9,17c-0.1,0-0.2,0-0.3,0C51.7,17,51.8,17,51.9,17z"/>
		<path class="st0" d="M25,17c-0.1,0-0.2,0-0.3,0C24.8,17,24.9,17,25,17z"/>
		<path class="st0" d="M25.6,17c-0.1,0-0.2,0-0.3,0C25.4,17,25.5,17,25.6,17z"/>
		<path class="st0" d="M26.3,17c-0.1,0-0.2,0-0.3,0C26.1,17,26.2,17,26.3,17z"/>
		<path class="st0" d="M54.4,17c-0.1,0-0.2,0-0.3,0C54.2,17,54.3,17,54.4,17z"/>
		<path class="st0" d="M55.1,17c-0.1,0-0.2,0-0.3,0C54.9,17,55,17,55.1,17z"/>
		<path class="st0" d="M55.7,17c-0.1,0-0.2,0-0.3,0C55.5,17,55.6,17,55.7,17z"/>
		<path class="st0" d="M56.3,17c-0.1,0-0.2,0-0.3,0C56.1,17,56.2,17,56.3,17z"/>
		<path class="st0" d="M57,17c-0.1,0-0.2,0-0.3,0C56.8,17,56.9,17,57,17z"/>
		<path class="st0" d="M57.6,17c-0.1,0-0.2,0-0.3,0C57.4,17,57.5,17,57.6,17z"/>
		<path class="st0" d="M58.3,17c-0.1,0-0.2,0-0.3,0C58.1,17,58.2,17,58.3,17z"/>
		<path class="st0" d="M58.9,17c-0.1,0-0.2,0-0.3,0C58.7,17,58.8,17,58.9,17z"/>
		<path class="st0" d="M59.5,17c-0.1,0-0.2,0-0.3,0C59.3,17,59.4,17,59.5,17z"/>
		<path class="st0" d="M60.2,17c-0.1,0-0.2,0-0.3,0C60,17,60.1,17,60.2,17z"/>
		<path class="st0" d="M60.8,17c-0.1,0-0.2,0-0.3,0C60.6,17,60.7,17,60.8,17z"/>
		<path class="st0" d="M61.5,17c-0.1,0-0.2,0-0.3,0C61.3,17,61.4,17,61.5,17z"/>
		<path class="st0" d="M62.1,17c-0.1,0-0.2,0-0.3,0C61.9,17,62,17,62.1,17z"/>
		<path class="st0" d="M62.7,17c-0.1,0-0.2,0-0.3,0C62.5,17,62.6,17,62.7,17z"/>
		<path class="st0" d="M63.4,17c-0.1,0-0.2,0-0.3,0C63.2,17,63.3,17,63.4,17z"/>
		<path class="st0" d="M64,17c-0.1,0-0.2,0-0.3,0C63.8,17,63.9,17,64,17z"/>
		<path class="st0" d="M64.7,17c-0.1,0-0.2,0-0.3,0C64.5,17,64.6,17,64.7,17z"/>
		<path class="st0" d="M65.3,17c-0.1,0-0.2,0-0.3,0C65.1,17,65.2,17,65.3,17z"/>
		<path class="st0" d="M65.9,17c-0.1,0-0.2,0-0.3,0C65.7,17,65.8,17,65.9,17z"/>
		<path class="st0" d="M66.6,17c-0.1,0-0.2,0-0.3,0C66.4,17,66.5,17,66.6,17z"/>
		<path class="st0" d="M67.2,17c-0.1,0-0.2,0-0.3,0C67,17,67.1,17,67.2,17z"/>
		<path class="st0" d="M67.9,17c-0.1,0-0.2,0-0.3,0C67.6,17,67.8,17,67.9,17z"/>
		<path class="st0" d="M68.5,17c-0.1,0-0.2,0-0.3,0C68.3,17,68.4,17,68.5,17z"/>
		<path class="st0" d="M69.1,17c-0.1,0-0.2,0-0.3,0C68.9,17,69,17,69.1,17z"/>
		<path class="st0" d="M69.8,17c-0.1,0-0.2,0-0.3,0C69.6,17,69.7,17,69.8,17z"/>
		<path class="st0" d="M70.4,17c-0.1,0-0.2,0-0.3,0C70.2,17,70.3,17,70.4,17z"/>
		<path class="st0" d="M71.1,17c-0.1,0-0.2,0-0.3,0C70.8,17,71,17,71.1,17z"/>
		<path class="st0" d="M71.7,17c-0.1,0-0.2,0-0.3,0C71.5,17,71.6,17,71.7,17z"/>
		<path class="st0" d="M72.3,17c-0.1,0-0.2,0-0.3,0C72.1,17,72.2,17,72.3,17z"/>
		<path class="st0" d="M73,17c-0.1,0-0.2,0-0.3,0C72.8,17,72.9,17,73,17z"/>
		<path class="st0" d="M73.6,17c-0.1,0-0.2,0-0.3,0C73.4,17,73.5,17,73.6,17z"/>
		<path class="st0" d="M74.3,17c-0.1,0-0.2,0-0.3,0C74,17,74.2,17,74.3,17z"/>
		<path class="st0" d="M74.9,17c-0.1,0-0.2,0-0.3,0C74.7,17,74.8,17,74.9,17z"/>
		<path class="st0" d="M75.5,17c-0.1,0-0.2,0-0.3,0C75.3,17,75.4,17,75.5,17z"/>
		<path class="st0" d="M76.2,17c-0.1,0-0.2,0-0.3,0C76,17,76.1,17,76.2,17z"/>
		<path class="st0" d="M76.8,17c-0.1,0-0.2,0-0.3,0C76.6,17,76.7,17,76.8,17z"/>
		<path class="st0" d="M24.4,17c-0.1,0-0.2,0-0.3,0C24.1,17,24.3,17,24.4,17z"/>
		<path class="st0" d="M23.7,17c-0.1,0-0.2,0-0.3,0C23.5,17,23.6,17,23.7,17z"/>
		<path class="st0" d="M22.4,17c-0.1,0-0.2,0-0.3,0C22.2,17,22.3,17,22.4,17z"/>
		<path class="st0" d="M79.4,17c-0.1,0-0.2,0-0.3,0C79.2,17,79.3,17,79.4,17z"/>
		<path class="st0" d="M52.5,17c-0.1,0-0.2,0-0.3,0C52.3,17,52.4,17,52.5,17z"/>
		<path class="st0" d="M80.7,17c-0.1,0-0.2,0-0.3,0C80.4,17,80.6,17,80.7,17z"/>
		<path class="st0" d="M81.3,17c-0.1,0-0.2,0-0.3,0C81.1,17,81.2,17,81.3,17z"/>
		<path class="st0" d="M81.9,17c-0.1,0-0.2,0-0.3,0C81.7,17,81.8,17,81.9,17z"/>
		<path class="st0" d="M82.6,17c-0.1,0-0.2,0-0.3,0C82.4,17,82.5,17,82.6,17z"/>
		<path class="st0" d="M83.2,17c-0.1,0-0.2,0-0.3,0C83,17,83.1,17,83.2,17z"/>
		<path class="st0" d="M83.9,17c-0.1,0-0.2,0-0.3,0C83.6,17,83.8,17,83.9,17z"/>
		<path class="st0" d="M84.5,17c-0.1,0-0.2,0-0.3,0C84.3,17,84.4,17,84.5,17z"/>
		<path class="st0" d="M85.1,17c-0.1,0-0.2,0-0.3,0C84.9,17,85,17,85.1,17z"/>
		<path class="st0" d="M85.8,17c-0.1,0-0.2,0-0.3,0C85.6,17,85.7,17,85.8,17z"/>
		<path class="st0" d="M86.4,17c-0.1,0-0.2,0-0.3,0C86.2,17,86.3,17,86.4,17z"/>
		<path class="st0" d="M87.1,17c-0.1,0-0.2,0-0.3,0C86.8,17,86.9,17,87.1,17z"/>
		<path class="st0" d="M87.7,17c-0.1,0-0.2,0-0.3,0C87.5,17,87.6,17,87.7,17z"/>
		<path class="st0" d="M88.3,17c-0.1,0-0.2,0-0.3,0C88.1,17,88.2,17,88.3,17z"/>
		<path class="st0" d="M89,17c-0.1,0-0.2,0-0.3,0C88.8,17,88.9,17,89,17z"/>
		<path class="st0" d="M89.6,17c-0.1,0-0.2,0-0.3,0C89.4,17,89.5,17,89.6,17z"/>
		<path class="st0" d="M90.3,17c-0.1,0-0.2,0-0.3,0C90,17,90.1,17,90.3,17z"/>
		<path class="st0" d="M90.9,17c-0.1,0-0.2,0-0.3,0C90.7,17,90.8,17,90.9,17z"/>
		<path class="st0" d="M91.5,17c-0.1,0-0.2,0-0.3,0C91.3,17,91.4,17,91.5,17z"/>
		<path class="st0" d="M92.2,17c-0.1,0-0.2,0-0.3,0C92,17,92.1,17,92.2,17z"/>
		<path class="st0" d="M92.8,17c-0.1,0-0.2,0-0.3,0C92.6,17,92.7,17,92.8,17z"/>
		<path class="st0" d="M93.5,17c-0.1,0-0.2,0-0.3,0C93.2,17,93.3,17,93.5,17z"/>
		<path class="st0" d="M94.1,17c-0.1,0-0.2,0-0.3,0C93.9,17,94,17,94.1,17z"/>
		<path class="st0" d="M94.7,17c-0.1,0-0.2,0-0.3,0C94.5,17,94.6,17,94.7,17z"/>
		<path class="st0" d="M95.4,17c-0.1,0-0.2,0-0.3,0C95.2,17,95.3,17,95.4,17z"/>
		<path class="st0" d="M96,17c-0.1,0-0.2,0-0.3,0C95.8,17,95.9,17,96,17z"/>
		<path class="st0" d="M96.7,17c-0.1,0-0.2,0-0.3,0C96.4,17,96.5,17,96.7,17z"/>
		<path class="st0" d="M97.3,17c-0.1,0-0.2,0-0.3,0C97.1,17,97.2,17,97.3,17z"/>
		<path class="st0" d="M97.9,17c-0.1,0-0.2,0-0.3,0C97.7,17,97.8,17,97.9,17z"/>
		<path class="st0" d="M98.6,17c-0.1,0-0.2,0-0.3,0C98.4,17,98.5,17,98.6,17z"/>
		<path class="st0" d="M99.2,17c-0.1,0-0.2,0-0.3,0C99,17,99.1,17,99.2,17z"/>
		<path class="st0" d="M99.9,17c-0.1,0-0.2,0-0.3,0C99.6,17,99.7,17,99.9,17z"/>
		<path class="st0" d="M100.5,17c-0.1,0-0.2,0-0.3,0C100.3,17,100.4,17,100.5,17z"/>
		<path class="st0" d="M101.1,17c-0.1,0-0.2,0-0.3,0C100.9,17,101,17,101.1,17z"/>
		<path class="st0" d="M101.8,17c-0.1,0-0.2,0-0.3,0C101.6,17,101.7,17,101.8,17z"/>
		<path class="st0" d="M102.4,17c-0.1,0-0.2,0-0.3,0C102.2,17,102.3,17,102.4,17z"/>
		<path class="st0" d="M103.1,17c-0.1,0-0.2,0-0.3,0C102.8,17,102.9,17,103.1,17z"/>
		<path class="st0" d="M103.7,17c-0.1,0-0.2,0-0.3,0C103.5,17,103.6,17,103.7,17z"/>
		<path class="st0" d="M104.3,17c-0.1,0-0.2,0-0.3,0C104.1,17,104.2,17,104.3,17z"/>
		<path class="st0" d="M105,17c-0.1,0-0.2,0-0.3,0C104.8,17,104.9,17,105,17z"/>
		<path class="st0" d="M105.6,17c-0.1,0-0.2,0-0.3,0C105.4,17,105.5,17,105.6,17z"/>
		<path class="st0" d="M78.7,17c-0.1,0-0.2,0-0.3,0C78.5,17,78.6,17,78.7,17z"/>
		<path class="st0" d="M107.5,17c-0.1,0-0.2,0-0.3,0C107.3,17,107.4,17,107.5,17z"/>
		<path class="st0" d="M78.1,17c-0.1,0-0.2,0-0.3,0C77.9,17,78,17,78.1,17z"/>
		<path class="st0" d="M108.2,17c-0.1,0-0.2,0-0.3,0C108,17,108.1,17,108.2,17z"/>
		<path class="st0" d="M108.8,17c-0.1,0-0.2,0-0.3,0C108.6,17,108.7,17,108.8,17z"/>
		<path class="st0" d="M109.4,17c-0.1,0-0.2,0-0.3,0C109.2,17,109.3,17,109.4,17z"/>
		<path class="st0" d="M110.1,17c-0.1,0-0.2,0-0.3,0C109.9,17,110,17,110.1,17z"/>
		<path class="st0" d="M110.7,17c-0.1,0-0.2,0-0.3,0C110.5,17,110.6,17,110.7,17z"/>
		<path class="st0" d="M111.4,17c-0.1,0-0.2,0-0.3,0C111.2,17,111.3,17,111.4,17z"/>
		<path class="st0" d="M112,17c-0.1,0-0.2,0-0.3,0C111.8,17,111.9,17,112,17z"/>
		<path class="st0" d="M112.6,17c-0.1,0-0.2,0-0.3,0C112.4,17,112.5,17,112.6,17z"/>
		<path class="st0" d="M113.3,17c-0.1,0-0.2,0-0.3,0C113.1,17,113.2,17,113.3,17z"/>
		<path class="st0" d="M113.9,17c-0.1,0-0.2,0-0.3,0C113.7,17,113.8,17,113.9,17z"/>
		<path class="st0" d="M114.6,17c-0.1,0-0.2,0-0.3,0C114.4,17,114.5,17,114.6,17z"/>
		<path class="st0" d="M115.2,17c-0.1,0-0.2,0-0.3,0C115,17,115.1,17,115.2,17z"/>
		<path class="st0" d="M115.8,17c-0.1,0-0.2,0-0.3,0C115.6,17,115.7,17,115.8,17z"/>
		<path class="st0" d="M116.5,17c-0.1,0-0.2,0-0.3,0C116.3,17,116.4,17,116.5,17z"/>
		<path class="st0" d="M117.1,17c-0.1,0-0.2,0-0.3,0C116.9,17,117,17,117.1,17z"/>
		<path class="st0" d="M117.8,17c-0.1,0-0.2,0-0.3,0C117.6,17,117.7,17,117.8,17z"/>
		<path class="st0" d="M118.4,17c-0.1,0-0.2,0-0.3,0C118.2,17,118.3,17,118.4,17z"/>
		<path class="st0" d="M119,17c-0.1,0-0.2,0-0.3,0C118.8,17,118.9,17,119,17z"/>
		<path class="st0" d="M119.7,17c-0.1,0-0.2,0-0.3,0C119.5,17,119.6,17,119.7,17z"/>
		<path class="st0" d="M120.3,17c-0.1,0-0.2,0-0.3,0C120.1,17,120.2,17,120.3,17z"/>
		<path class="st0" d="M121,17c-0.1,0-0.2,0-0.3,0C120.8,17,120.9,17,121,17z"/>
		<path class="st0" d="M121.6,17c-0.1,0-0.2,0-0.3,0C121.4,17,121.5,17,121.6,17z"/>
		<path class="st0" d="M122.2,17c-0.1,0-0.2,0-0.3,0C122,17,122.1,17,122.2,17z"/>
		<path class="st0" d="M122.9,17c-0.1,0-0.2,0-0.3,0C122.7,17,122.8,17,122.9,17z"/>
		<path class="st0" d="M123.5,17c-0.1,0-0.2,0-0.3,0C123.3,17,123.4,17,123.5,17z"/>
		<path class="st0" d="M124.2,17c-0.1,0-0.2,0-0.3,0C124,17,124.1,17,124.2,17z"/>
		<path class="st0" d="M124.8,17c-0.1,0-0.2,0-0.3,0C124.6,17,124.7,17,124.8,17z"/>
		<path class="st0" d="M125.4,17c-0.1,0-0.2,0-0.3,0C125.2,17,125.3,17,125.4,17z"/>
		<path class="st0" d="M126.1,17c-0.1,0-0.2,0-0.3,0C125.9,17,126,17,126.1,17z"/>
		<path class="st0" d="M126.7,17c-0.1,0-0.2,0-0.3,0C126.5,17,126.6,17,126.7,17z"/>
		<path class="st0" d="M127.4,17c-0.1,0-0.2,0-0.3,0C127.1,17,127.3,17,127.4,17z"/>
		<path class="st0" d="M128,17c-0.1,0-0.2,0-0.3,0C127.8,17,127.9,17,128,17z"/>
		<path class="st0" d="M128.6,17c-0.1,0-0.2,0-0.3,0C128.4,17,128.5,17,128.6,17z"/>
		<path class="st0" d="M129.3,17c-0.1,0-0.2,0-0.3,0C129.1,17,129.2,17,129.3,17z"/>
		<path class="st0" d="M129.9,17c-0.1,0-0.2,0-0.3,0C129.7,17,129.8,17,129.9,17z"/>
		<path class="st0" d="M130.6,17c-0.1,0-0.2,0-0.3,0C130.3,17,130.5,17,130.6,17z"/>
		<path class="st0" d="M131.2,17c-0.1,0-0.2,0-0.3,0C131,17,131.1,17,131.2,17z"/>
		<path class="st0" d="M131.8,17c-0.1,0-0.2,0-0.3,0C131.6,17,131.7,17,131.8,17z"/>
		<path class="st0" d="M23.1,17c-0.1,0-0.2,0-0.3,0C22.9,17,23,17,23.1,17z"/>
		<path class="st0" d="M106.2,17c-0.1,0-0.2,0-0.3,0C106,17,106.1,17,106.2,17z"/>
		<path class="st0" d="M80,17c-0.1,0-0.2,0-0.3,0C79.8,17,79.9,17,80,17z"/>
		<path class="st0" d="M21.8,17c0,0,0,0.1-0.1,0.1c0,0-0.1-0.1-0.1-0.1C21.7,17,21.7,17,21.8,17z"/>
	</g>
</g>
</svg>
