<?xml version="1.0" encoding="utf-8"?>
<!-- Generator: Adobe Illustrator 27.7.0, SVG Export Plug-In . SVG Version: 6.00 Build 0)  -->
<svg version="1.1"
	 id="Layer_1" xmlns:cc="http://creativecommons.org/ns#" xmlns:rdf="http://www.w3.org/1999/02/22-rdf-syntax-ns#" xmlns:dc="http://purl.org/dc/elements/1.1/"
	 xmlns="http://www.w3.org/2000/svg" xmlns:xlink="http://www.w3.org/1999/xlink" x="0px" y="0px" viewBox="0 0 153 153"
	 style="enable-background:new 0 0 153 153;" xml:space="preserve">
<style type="text/css">
	.st0{fill:#D8ECFB;}
	.st1{fill:#485B6F;}
	.st2{fill:#D2EDF9;}
	.st3{fill:#ABBDBD;}
	.st4{fill:#F5E2D2;}
	.st5{fill:#DFD8C2;}
	.st6{fill:#00A4DE;}
	.st7{fill:#57BEE7;}
	.st8{fill:#3DB6E2;}
	.st9{fill:#2DC8F5;}
</style>
<g id="n5uN3B_00000100345148693687056610000016839312437562570126_">
	<g>
		<path class="st0" d="M13.6,75.2c-0.2,0-0.4,0-0.5,0c0-0.8,0-1.7,0-2.5c0.1-0.1,0.2-0.2,0.3-0.3C13.4,73.3,13.5,74.2,13.6,75.2z"/>
		<path class="st1" d="M13.3,72.3c-0.1,0.1-0.2,0.2-0.3,0.3c0-2.4,0-4.7,0-7.1c0.1,0.2,0.2,0.4,0.3,0.6c0,0.7-0.1,1.4-0.1,2.1
			c0,1.1,0.1,2.2,0.2,3.3C13.3,71.8,13.3,72,13.3,72.3z"/>
		<path class="st2" d="M13.3,66.1c-0.1-0.2-0.2-0.4-0.3-0.6c0-0.7,0-1.4,0-2.1c0.2,0,0.4,0,0.5,0c0,0.7-0.1,1.4-0.1,2.1
			C13.4,65.7,13.4,65.9,13.3,66.1z"/>
		<path class="st3" d="M140.5,67.2c0,1.1,0,2.2,0,3.3c0,0-0.1,0-0.1,0c0-1.1,0-2.2,0-3.3L140.5,67.2L140.5,67.2z"/>
		<path class="st4" d="M140.3,70.5c0,0,0.1,0,0.1,0c0,0.9,0,1.9,0,2.8c-0.1-0.7-0.1-1.3-0.2-2C140.3,71.1,140.3,70.8,140.3,70.5z"/>
		<path class="st5" d="M140.5,67.2L140.5,67.2c-0.1,0-0.1,0-0.1,0c0-0.2,0-0.5,0-0.7c0.1-0.3,0.1-0.6,0.2-0.9
			C140.5,66.2,140.5,66.7,140.5,67.2z"/>
		<path class="st6" d="M140.3,66.5c0,0.2,0,0.5,0,0.7c0,1.1,0,2.2,0,3.3c0,0.3,0,0.6,0,0.8c-0.1,0.2-0.2,0.4-0.3,0.7
			c-0.1,1.6-0.6,3.2-1.1,4.8c-0.9,3.1-2.3,5.9-4,8.6c-1.6,2.6-3.5,5-5.4,7.4c-2.8,3.6-6.1,6.8-9.4,10c-3.9,3.6-8,6.9-12.4,9.8
			c-3.6,2.4-7.2,4.7-11,6.7c-4.9,2.6-9.9,5-15.2,6.7c-1.6,0.5-3.1,1.1-4.7,1.5c-1.5,0.4-3,0.6-4.6,0.9c-1.4,0.2-2.9,0.5-4.3,0.6
			c-1.6,0.1-3.2,0.2-4.9,0.1c-2.1-0.1-4.2-0.3-6.2-0.9c-1.4-0.4-2.9-0.7-4.3-1.2c-1.6-0.6-3.1-1.3-4.6-2c-0.2-0.1-0.3-0.4-0.5-0.6
			c0-0.1,0-0.1-0.1-0.2c0-0.4,0-0.7,0-1.1c0,0,0,0,0,0c0,0,0-0.1,0-0.1c0-7.2,0-14.3,0-21.5c0-1.2,0-2.4,0-3.8
			c0.3,0.2,0.5,0.3,0.7,0.5c3.5,3.8,7.6,6.8,12.3,8.8c2.1,0.9,4.3,1.6,6.5,2c2.5,0.5,5,0.8,7.5,0.7c5.7-0.2,11-1.6,16-4.5
			c5.6-3.3,9.8-7.7,13.2-13.1c1.4-2.3,2.6-4.8,3.4-7.3c0.6-2,0.9-4,1.3-6.1c0.2-1,0.2-2.1,0.3-3.1c0,0,0,0,0,0c0,0,0-0.1,0-0.1
			c0-1.3,0-2.6,0-4c-0.2-4-1.1-7.8-2.6-11.5c-2.1-5.2-5.4-9.5-9.6-13.2c-2.8-2.5-6-4.6-9.5-6c-2.4-1-4.9-1.7-7.5-2
			c-2.3-0.3-4.7-0.6-7-0.5c-2.5,0.2-5,0.5-7.4,1c-5.4,1.2-10,3.9-14,7.7c-1.6,1.5-3.3,3-4.7,4.7c-2.6,3.1-4.4,6.7-5.8,10.5
			c-0.7,2-1.2,4.1-1.6,6.2c-0.4,2-0.4,4.1-0.4,6.1c0,14.6,0,29.2,0,43.7c0,0.2,0,0.4,0,0.6c-0.1-0.1-0.3-0.1-0.3-0.1
			c-3.6-2.9-6.7-6.1-9.5-9.7c-2.6-3.3-5-6.8-7-10.5c-1.8-3.2-3.4-6.5-4.7-10c-1.2-3.3-2.2-6.7-2.9-10.1c-0.2-1-0.3-2-0.5-3
			c-0.1-0.9-0.2-1.9-0.2-2.8c0-0.3,0-0.6,0-0.9c0.1-0.2,0.2-0.4,0.2-0.6c0-1.1,0-2.1,0-3.2c0-0.7-0.1-1.4-0.1-2.1
			c0-0.7,0.1-1.4,0.1-2.1c0.4-1.9,0.7-3.8,1.3-5.7c0.7-2.2,1.5-4.3,2.5-6.3c3.4-6.9,8.3-12.3,14.5-16.8c4.8-3.4,10-5.9,15.5-7.6
			c3.2-0.9,6.4-1.7,9.7-2.2c3.7-0.6,7.5-0.6,11.3-0.5c2.1,0.1,4.3,0.3,6.4,0.6c2,0.3,4,0.7,6,1.1c3.4,0.7,6.9,1.5,10.3,2.3
			c1.4,0.4,2.8,0.9,4.2,1.4c2,0.7,4.1,1.3,6,2.1c2.9,1.2,5.8,2.5,8.6,3.8c2.3,1.1,4.6,2.3,6.8,3.6c3.3,1.9,6.4,4,9.4,6.3
			c4.1,3.4,7.9,7,10.7,11.6c1,1.7,1.9,3.5,2.4,5.4c0.3,1.2,0.6,2.5,0.9,3.7C140.1,66.3,140.2,66.4,140.3,66.5z"/>
		<path class="st6" d="M47.4,73.9c0-2.7,0.5-5.4,1.3-7.9c1.9-6.2,5.7-11.1,10.9-14.8c3.2-2.3,6.8-3.6,10.8-3.9
			c1.6-0.1,3.2-0.2,4.8-0.1c1,0,1.9,0.2,2.9,0.4c1.6,0.4,3.2,0.8,4.8,1.3c2,0.6,3.9,1.7,5.5,3c3.7,3,6.9,6.5,8.8,11
			c0.7,1.5,1.1,3.2,1.5,4.8c0.7,2.7,0.8,5.4,0.7,8.2c-0.1,2.2-0.3,4.4-1.2,6.5c-0.6,1.5-0.9,3.1-1.8,4.4c-1.3,2-2.8,4-4.3,5.8
			c-3,3.6-6.9,5.8-11.3,7.2c-1.8,0.6-3.7,1-5.6,1c-0.8,0-1.6,0.1-2.4,0.1c-4.8,0-9.2-1.3-13.2-3.9c-4.1-2.7-7-6.4-9.3-10.6
			c-1-2-1.8-4.1-2.2-6.2c-0.2-1.2-0.4-2.3-0.5-3.5C47.5,75.5,47.4,74.7,47.4,73.9z"/>
		<path class="st7" d="M108.6,75.3c0,0,0,0.1,0,0.1c0,0,0,0,0,0C108.6,75.4,108.6,75.3,108.6,75.3z"/>
		<path class="st8" d="M47.5,122.9c0,0,0,0.1,0,0.1c0,0,0,0,0,0C47.5,123,47.5,122.9,47.5,122.9z"/>
		<path class="st8" d="M47.5,124.2c0,0.1,0,0.1,0.1,0.2C47.5,124.3,47.5,124.2,47.5,124.2z"/>
		<path class="st9" d="M13.5,65.5c0,0.7,0.1,1.4,0.1,2.1c0,1.1,0,2.1,0,3.2c0,0.2-0.1,0.4-0.2,0.6c-0.1-1.1-0.2-2.2-0.2-3.3
			c0-0.7,0.1-1.4,0.1-2.1C13.4,65.9,13.4,65.7,13.5,65.5z"/>
	</g>
</g>
</svg>
