<?xml version="1.0" encoding="utf-8"?>
<!-- Generator: Adobe Illustrator 27.9.0, SVG Export Plug-In . SVG Version: 6.00 Build 0)  -->
<svg version="1.1"
	 id="Layer_1" xmlns:cc="http://creativecommons.org/ns#" xmlns:rdf="http://www.w3.org/1999/02/22-rdf-syntax-ns#" xmlns:dc="http://purl.org/dc/elements/1.1/"
	 xmlns="http://www.w3.org/2000/svg" xmlns:xlink="http://www.w3.org/1999/xlink" x="0px" y="0px" viewBox="0 0 153 153"
	 style="enable-background:new 0 0 153 153;" xml:space="preserve">
<style type="text/css">
	.st0{fill:#7C7E82;}
	.st1{fill:#FDB905;}
</style>
<path class="st0" d="M93.5,54.3c-0.5,0-1,0.1-1.5,0.1c-19.2,0-38.4,0-57.5,0C23.7,54.3,15.1,45.8,15,35
	c-0.2-10.6,8.5-19.7,19.2-19.8c13.5-0.1,27-0.1,40.5,0c10,0.1,18.6,8.5,18.8,18.6C93.7,40.5,93.5,47.3,93.5,54.3z M24.9,34.8
	c0,5.4,4.4,9.8,9.8,9.7c5.4,0,9.7-4.5,9.7-9.9c0-5.4-4.4-9.7-9.8-9.7C29.3,24.9,24.9,29.4,24.9,34.8z M64.3,34.6
	c-0.1,5.4,4.1,9.9,9.5,10c5.2,0.2,9.9-4.3,10-9.6c0.1-5.4-4.1-9.8-9.3-9.9C68.7,25,64.4,29,64.3,34.6z"/>
<path class="st0" d="M93.5,59.5c0,0.7,0.1,1.3,0.1,2c0,18.6-0.1,37.2,0,55.7c0,7.9-3,14-9.8,18.1c-12.3,7.4-29-1.4-29.3-15.8
	c-0.3-13.9-0.2-27.8,0-41.7C54.7,68,63,59.7,72.9,59.4c6.5-0.2,13.1-0.1,19.7-0.1C92.8,59.3,93.1,59.4,93.5,59.5z M74.1,69.3
	c-5.5,0-9.8,4.2-9.8,9.6c0,5.6,4.3,10,9.8,10c5.5,0,9.7-4.4,9.7-10C83.8,73.5,79.5,69.3,74.1,69.3z M64.2,118.3
	c0,5.5,4.3,9.9,9.7,9.9c5.5,0,9.9-4.4,9.9-9.9c0-5.4-4.4-9.8-9.8-9.7C68.5,108.7,64.2,112.9,64.2,118.3z"/>
<path class="st1" d="M110.4,54.5c-3.3,0-6.6,0-9.9,0c-1.5,0-2-0.5-2-2c0.1-6.1,0-12.2,0.1-18.2c0.1-11.5,10.7-20.7,22.1-19.2
	c14.2,1.9,21.8,17.1,14.7,29.5c-3.9,6.8-10.2,9.9-18,9.9C115,54.6,112.7,54.6,110.4,54.5C110.4,54.6,110.4,54.5,110.4,54.5z
	 M127.9,34.7c0-5.7-4.2-9.6-10-9.6c-5.4,0-9.3,4.1-9.3,9.8c0,5.2,4.3,9.6,9.5,9.6C123.6,44.6,128,40.2,127.9,34.7z"/>
</svg>
