<?xml version="1.0" encoding="utf-8"?>
<!-- Generator: Adobe Illustrator 27.7.0, SVG Export Plug-In . SVG Version: 6.00 Build 0)  -->
<svg version="1.1"
	 id="Layer_1" xmlns:cc="http://creativecommons.org/ns#" xmlns:rdf="http://www.w3.org/1999/02/22-rdf-syntax-ns#" xmlns:dc="http://purl.org/dc/elements/1.1/"
	 xmlns="http://www.w3.org/2000/svg" xmlns:xlink="http://www.w3.org/1999/xlink" x="0px" y="0px" viewBox="0 0 153 153"
	 style="enable-background:new 0 0 153 153;" xml:space="preserve">
<style type="text/css">
	.st0{fill:#0088FF;}
	.st1{fill:#FEFEFE;}
</style>
<circle class="st0" cx="76.5" cy="76.5" r="66.5"/>
<path class="st1" d="M86.1,63.8c0-5.8-0.1-11.6,0.1-17.5c0-1.1,0.7-2.3,1.4-3.2c1.5-1.9,3.7-2.4,6.1-2.3c1.8,0.1,3.6-0.1,5.4,0
	c1.5,0.1,3,0.2,4.3,1.1c1.5,1.1,2.6,2.5,2.6,4.5c0.1,11.4,0.2,22.9,0.2,34.3c0,3.3,1.7,5.1,4.5,6.1c0.2,0.1,0.4,0.1,0.6,0.1
	c2.5,0,5,0,7.5,0c1.7,0,3.3,0.4,4.8,1.5c1.3,1,2,2.3,2.1,3.7c0.2,3.5,0.3,6.9,0.2,10.4c-0.1,3-1.9,5-4.7,5.9
	c-0.3,0.1-0.5,0.1-0.8,0.1c-2.7,0-5.5-0.1-8.2,0c-2.8,0.2-5-2-5.8-4.1c-0.6-1.4-0.6-2.9-0.5-4.5c0.1-2,0-4.1,0-6.1
	c0-0.7-0.2-1.3-0.2-2c0-2.4-3-4.7-5.4-4.7c-2.3,0-4.7,0-7,0c-0.9,0-1.9,0.1-2.8,0.3c-2.2,0.5-4,2.9-4.1,5.4c0,2.5,0,4.9,0,7.4
	c0,1.2-0.1,2.5-0.4,3.7c-0.4,2.2-3.1,4.4-5.4,4.4c-2.8,0-5.6-0.1-8.4,0c-1.9,0.1-3.1-1.1-4.3-2.3c-1.4-1.5-1.6-3.4-1.6-5.3
	c0-2.5,0.1-5,0-7.5c-0.1-3-1.6-5-4.3-5.9c-0.7-0.2-1.5-0.2-2.3-0.3c-2.3,0-4.6,0-6.9-0.1c-2.7-0.1-4.6-1.4-5.9-3.9
	c-1.1-2.1-0.6-4.4-0.7-6.6c0-0.4,0.1-0.8,0.1-1.2c0-9.3,0-18.6,0-27.9c0-2.1,0.6-3.9,2.1-5.3c0.9-0.9,2-1.3,3.2-1.4
	c2.6-0.1,5.2-0.2,7.7-0.2c2.1,0,4.1,0.5,5.5,2.3c0.7,1,1.4,2,1.4,3.4c0.1,11.8,0.2,23.6,0.1,35.4c0,2,3.3,5.3,5.3,5.2
	c2.6-0.2,5.3-0.2,7.9,0c2.9,0.2,5.4-1.9,6.2-4.5c0.2-0.5,0.2-1,0.2-1.5c0-2.9,0-5.8,0-8.6C86.1,69.5,86.1,66.7,86.1,63.8z"/>
<path class="st1" d="M26.7,98c0-1.7,0-3.3,0-5c0.1-3.4,2.5-5.7,5.6-5.9c2.4-0.2,4.8-0.1,7.1,0c2,0.1,4,0.5,5.4,2.1
	c1.3,1.4,1.7,3.1,1.8,4.8c0.1,2.8,0.2,5.6-0.1,8.4c-0.3,3.3-2.4,6.2-6.4,6.2c-2.5,0-4.9,0-7.4,0c-2.5,0-4.3-1.1-5.3-3.3
	c-0.4-0.8-0.7-1.8-0.7-2.7C26.6,101.1,26.7,99.5,26.7,98z"/>
</svg>
