<?xml version="1.0" encoding="utf-8"?>
<!-- Generator: Adobe Illustrator 27.7.0, SVG Export Plug-In . SVG Version: 6.00 Build 0)  -->
<svg version="1.1"
	 id="Layer_1" xmlns:cc="http://creativecommons.org/ns#" xmlns:rdf="http://www.w3.org/1999/02/22-rdf-syntax-ns#" xmlns:dc="http://purl.org/dc/elements/1.1/"
	 xmlns="http://www.w3.org/2000/svg" xmlns:xlink="http://www.w3.org/1999/xlink" x="0px" y="0px" viewBox="0 0 153 153"
	 style="enable-background:new 0 0 153 153;" xml:space="preserve">
<style type="text/css">
	.st0{fill:#1C4DFF;}
</style>
<path class="st0" d="M62.2,26.5c26.2,0,52.4,0,78.8,0c0,13.1,0,26.2,0,39.7c-13,0-26,0-39.3,0c0,21.3,0,42.2,0,63.2
	c-13.3,0-26.2,0-39.4,0C62.2,95.2,62.2,60.9,62.2,26.5z"/>
<path class="st0" d="M34.1,69c-11.2,1-21.9-10.8-22-21.3c-0.1-15.7,10.6-23.8,23.1-24.1c12-0.2,23.1,10.1,22.4,24.4
	C57,58.7,47.9,69.6,34.1,69z"/>
</svg>
