<?xml version="1.0" encoding="UTF-8"?>
<svg id="Layer_1" xmlns="http://www.w3.org/2000/svg" version="1.1" viewBox="0 0 32 32">
  <!-- Generator: Adobe Illustrator 29.1.0, SVG Export Plug-In . SVG Version: 2.1.0 Build 142)  -->
  <defs>
    <style>
      .st0 {
        fill: #1185fe;
      }
    </style>
  </defs>
  <path class="st0" d="M3,6.9c0-1,.4-2,1.5-2.2,1.8-.4,4.2,1.4,5.4,2.5,2,1.9,3.6,4.1,5.1,6.4l1,1.8c.9-1.7,2-3.3,3.1-4.9s4.3-5.1,7-5.8,2.7.3,2.8,2-.1,2.9-.2,4.3-.2,2.1-.3,3.1c-.4,3-2.7,4.5-5.6,4.6h-.5s-1.1,0-1.1,0c0,0,0,0,0,0,.2,0,.5,0,.8.2,2,.5,4.5,1.8,4,4.2s-3.1,4.3-5,4.5h-.6c-.1,0-.3,0-.4,0-1.8-.5-2.9-2.6-3.6-4.3s-.3-.9-.5-1.4h0c-.2.5-.3,1-.5,1.5-.6,1.6-1.7,3.7-3.5,4.1s-.3,0-.4,0h-.6c-.3,0-.5-.1-.8-.2-1.6-.5-3.8-2.6-4.2-4.3-.5-2.5,2.2-3.8,4.2-4.3s.4,0,.6-.1,0,0,0,0h-1.1c0,0-.5,0-.5,0-2.6,0-5-1.4-5.5-4.1s-.4-4.4-.6-6.5v-.5c0-.2,0-.5,0-.7Z"/>
</svg>