<?xml version="1.0" encoding="utf-8"?>
<!-- Generator: Adobe Illustrator 25.2.3, SVG Export Plug-In . SVG Version: 6.00 Build 0)  -->
<svg version="1.1" id="Layer_1" xmlns="http://www.w3.org/2000/svg" xmlns:xlink="http://www.w3.org/1999/xlink" x="0px" y="0px"
	 viewBox="0 0 32 32" style="enable-background:new 0 0 32 32;" xml:space="preserve">
<style type="text/css">
	.st0{fill:#1778F2;}
</style>
<path id="Facebook" class="st0" d="M29,16.1c0-7.2-5.8-13-13-13S3,9,3,16.1c0,6.4,4.7,11.8,11,12.8v-9.1h-3.3v-3.8H14v-2.9
	c0-3.3,1.9-5.1,4.9-5.1c1,0,1.9,0.1,2.9,0.3v3.2h-1.6c-1-0.1-2,0.6-2.1,1.6c0,0.1,0,0.3,0,0.4v2.4h3.6l-0.6,3.8h-3v9.1
	C24.4,27.9,29,22.5,29,16.1"/>
</svg>
