<?xml version="1.0" encoding="utf-8"?>
<!-- Generator: Adobe Illustrator 25.2.3, SVG Export Plug-In . SVG Version: 6.00 Build 0)  -->
<svg version="1.1" id="Layer_1" xmlns="http://www.w3.org/2000/svg" xmlns:xlink="http://www.w3.org/1999/xlink" x="0px" y="0px"
	 viewBox="0 0 32 32" style="enable-background:new 0 0 32 32;" xml:space="preserve">
<style type="text/css">
	.st0{fill:url(#SVGID_1_);}
	.st1{fill:url(#SVGID_2_);}
	.st2{fill:#FFFFFF;}
</style>
<radialGradient id="SVGID_1_" cx="-265.705" cy="-308.1766" r="11.9883" gradientTransform="matrix(0 -1.982 -1.8439 0 -557.8673 -496.7882)" gradientUnits="userSpaceOnUse">
	<stop  offset="0" style="stop-color:#FFDD55"/>
	<stop  offset="0.1" style="stop-color:#FFDD55"/>
	<stop  offset="0.5" style="stop-color:#FF543E"/>
	<stop  offset="1" style="stop-color:#C837AB"/>
</radialGradient>
<path class="st0" d="M16,4c-5,0-6.5,0-6.8,0c-1,0.1-1.7,0.2-2.4,0.6c-0.5,0.3-1,0.6-1.4,1C4.7,6.4,4.3,7.4,4.1,8.6
	C4,9.1,4,9.2,4,12.1c0,1,0,2.2,0,3.9c0,5,0,6.5,0,6.7c0.1,1,0.2,1.6,0.6,2.3c0.6,1.3,1.8,2.3,3.3,2.7c0.5,0.1,1,0.2,1.7,0.2
	c0.3,0,3.3,0,6.4,0s6.1,0,6.3,0c0.8,0,1.3-0.1,1.8-0.2c1.4-0.4,2.6-1.3,3.3-2.7c0.3-0.7,0.5-1.3,0.6-2.3c0-0.2,0-3.5,0-6.8
	c0-3.3,0-6.6,0-6.8c-0.1-1-0.2-1.6-0.6-2.3c-0.3-0.6-0.6-1-1-1.4c-0.8-0.8-1.8-1.2-2.9-1.4C22.9,4,22.8,4,19.9,4H16z"/>
<radialGradient id="SVGID_2_" cx="341.6799" cy="2.5751" r="11.9883" gradientTransform="matrix(0.1739 0.8687 3.5818 -0.7172 -68.6627 -289.2376)" gradientUnits="userSpaceOnUse">
	<stop  offset="0" style="stop-color:#3771C8"/>
	<stop  offset="0.128" style="stop-color:#3771C8"/>
	<stop  offset="1" style="stop-color:#6600FF;stop-opacity:0"/>
</radialGradient>
<path class="st1" d="M16,4c-5,0-6.5,0-6.8,0c-1,0.1-1.7,0.2-2.4,0.6c-0.5,0.3-1,0.6-1.4,1C4.7,6.4,4.3,7.4,4.1,8.6
	C4,9.1,4,9.2,4,12.1c0,1,0,2.2,0,3.9c0,5,0,6.5,0,6.7c0.1,1,0.2,1.6,0.6,2.3c0.6,1.3,1.8,2.3,3.3,2.7c0.5,0.1,1,0.2,1.7,0.2
	c0.3,0,3.3,0,6.4,0s6.1,0,6.3,0c0.8,0,1.3-0.1,1.8-0.2c1.4-0.4,2.6-1.3,3.3-2.7c0.3-0.7,0.5-1.3,0.6-2.3c0-0.2,0-3.5,0-6.8
	c0-3.3,0-6.6,0-6.8c-0.1-1-0.2-1.6-0.6-2.3c-0.3-0.6-0.6-1-1-1.4c-0.8-0.8-1.8-1.2-2.9-1.4C22.9,4,22.8,4,19.9,4H16z"/>
<path class="st2" d="M16,7.1c-2.4,0-2.7,0-3.7,0.1c-0.9,0-1.6,0.2-2.1,0.4c-0.6,0.2-1.1,0.5-1.6,1c-0.5,0.5-0.8,1-1,1.6
	c-0.2,0.6-0.4,1.2-0.4,2.1c0,0.9-0.1,1.2-0.1,3.7s0,2.7,0.1,3.6c0,0.9,0.2,1.6,0.4,2.1c0.2,0.6,0.5,1.1,1,1.6c0.5,0.5,1,0.8,1.6,1
	c0.6,0.2,1.2,0.4,2.1,0.4c0.9,0,1.2,0.1,3.6,0.1c2.4,0,2.7,0,3.6-0.1c0.9,0,1.6-0.2,2.1-0.4c0.6-0.2,1.1-0.5,1.6-1
	c0.5-0.5,0.8-1,1-1.6c0.2-0.6,0.4-1.2,0.4-2.1c0-0.9,0.1-1.2,0.1-3.6s0-2.7-0.1-3.7c0-0.9-0.2-1.6-0.4-2.1c-0.2-0.6-0.5-1.1-1-1.6
	c-0.5-0.5-1-0.8-1.6-1c-0.6-0.2-1.2-0.4-2.2-0.4C18.7,7.2,18.4,7.1,16,7.1L16,7.1z M15.2,8.7c0.2,0,0.5,0,0.8,0c2.4,0,2.6,0,3.6,0.1
	c0.9,0,1.3,0.2,1.6,0.3c0.4,0.2,0.7,0.4,1,0.7c0.3,0.3,0.5,0.6,0.7,1c0.1,0.3,0.3,0.8,0.3,1.6c0,0.9,0.1,1.2,0.1,3.6s0,2.6-0.1,3.6
	c0,0.9-0.2,1.3-0.3,1.6c-0.2,0.4-0.4,0.7-0.7,1c-0.3,0.3-0.6,0.5-1,0.7c-0.3,0.1-0.8,0.3-1.6,0.3c-0.9,0-1.2,0.1-3.6,0.1
	c-2.4,0-2.6,0-3.6-0.1c-0.9,0-1.3-0.2-1.6-0.3c-0.4-0.2-0.7-0.4-1-0.7c-0.3-0.3-0.5-0.6-0.7-1c-0.1-0.3-0.3-0.8-0.3-1.6
	c0-0.9-0.1-1.2-0.1-3.6s0-2.6,0.1-3.6c0-0.9,0.2-1.3,0.3-1.6c0.2-0.4,0.4-0.7,0.7-1c0.3-0.3,0.6-0.5,1-0.7c0.3-0.1,0.8-0.3,1.6-0.3
	C13.2,8.8,13.6,8.7,15.2,8.7L15.2,8.7z M20.7,10.2c-0.6,0-1.1,0.5-1.1,1.1c0,0.6,0.5,1.1,1.1,1.1s1.1-0.5,1.1-1.1
	S21.3,10.2,20.7,10.2L20.7,10.2z M16,11.5c-2.5,0-4.5,2-4.5,4.5s2,4.5,4.5,4.5c2.5,0,4.5-2,4.5-4.5S18.5,11.5,16,11.5L16,11.5z
	 M16,13.1c1.6,0,3,1.3,3,3c0,1.6-1.3,3-3,3c-1.6,0-3-1.3-3-3C13,14.4,14.4,13.1,16,13.1z"/>
</svg>
