<?xml version="1.0" encoding="UTF-8"?>
<svg id="Layer_1" xmlns="http://www.w3.org/2000/svg" xmlns:xlink="http://www.w3.org/1999/xlink" version="1.1" viewBox="0 0 32 32">
  <!-- Generator: Adobe Illustrator 29.2.1, SVG Export Plug-In . SVG Version: 2.1.0 Build 116)  -->
  <defs>
    <style>
      .st0 {
        fill: #00b9fe;
      }

      .st1 {
        fill: url(#linear-gradient);
      }

      .st2 {
        fill: #fff;
        stroke: #000;
        stroke-linecap: round;
        stroke-linejoin: round;
        stroke-width: 0px;
      }

      .st3 {
        fill: #ff5e5b;
      }
    </style>
    <linearGradient id="linear-gradient" x1="7.5" y1="-2194" x2="10.2" y2="-2202.2" gradientTransform="translate(4.3 -2185.7) scale(1 -1)" gradientUnits="userSpaceOnUse">
      <stop offset="0" stop-color="#ff4ea3"/>
      <stop offset="1" stop-color="#ff5e5b"/>
    </linearGradient>
  </defs>
  <circle class="st0" cx="16" cy="16" r="12.6"/>
  <g id="Layer_1-2">
    <g id="Layer_1-3">
      <path class="st2" d="M22.4,17.2c-.5,0-.9,0-1.4,0v-4.6h1c.6,0,1.2.3,1.6.8.3.4.5.9.5,1.5.1,1.1-.6,2.1-1.7,2.3ZM26.4,14c-.2-1.2-.9-2.2-1.9-2.9-.8-.6-1.8-.9-2.8-.9H7.6c-.4,0-.7.4-.7.8v.2s0,6.2,0,9.6c0,1.1,1,2,2.1,2,0,0,6.5,0,9.6,0h.5c1.8-.5,1.9-2.1,1.9-3,3.5.1,6-2.4,5.4-5.7Z"/>
      <path class="st3" d="M13.8,20.1c.2,0,.3,0,.3,0,0,0,2.2-2.1,3.3-3.3.9-1.1,1-2.8-.6-3.5s-2.8.8-2.8.8c-.9-1.1-2.4-1.2-3.5-.4h0c-.8.9-.5,2.3,0,3.1,1,1.1,2.1,2.2,3.3,3.2h.1Z"/>
      <path class="st1" d="M13.9,20.2c0,0,.1,0,.2,0,0,0,2.2-2.1,3.3-3.3.9-1.1,1-2.8-.6-3.5s-2.8.8-2.8.8c-.9-1.1-2.4-1.2-3.5-.4h0c-.8.9-.5,2.3,0,3.1,1,1.2,2.2,2.2,3.3,3.3,0,.1,0,.1.1.1Z"/>
    </g>
  </g>
</svg>