<?xml version="1.0" encoding="utf-8"?>
<!-- Generator: Adobe Illustrator 25.2.3, SVG Export Plug-In . SVG Version: 6.00 Build 0)  -->
<svg version="1.1" id="Layer_1" xmlns="http://www.w3.org/2000/svg" xmlns:xlink="http://www.w3.org/1999/xlink" x="0px" y="0px"
	 viewBox="0 0 32 32" style="enable-background:new 0 0 32 32;" xml:space="preserve">
<style type="text/css">
	.st0{fill:#BD081C;}
</style>
<path id="pinterest" class="st0" d="M28,16c0,6.6-5.4,12-12,12c-1.2,0-2.4-0.2-3.5-0.5c0.6-1,1.1-2,1.5-3.1c0.1-0.6,0.7-2.9,0.7-2.9
	c0.6,0.9,1.7,1.4,2.8,1.4c3.6,0,6.2-3.3,6.2-7.5c0-4-3.2-6.9-7.4-6.9c-5.2,0-7.9,3.5-7.9,7.3c0,1.8,0.9,4,2.4,4.6
	c0.2,0.1,0.3,0.1,0.4-0.2c0-0.2,0.2-1,0.3-1.4c0-0.1,0-0.3-0.1-0.3c-0.6-0.8-0.9-1.8-0.9-2.7c0-2.9,2.3-5.2,5.2-5.2
	c0.1,0,0.2,0,0.2,0c2.6-0.2,4.9,1.8,5,4.5c0,0.1,0,0.3,0,0.4c0,3.2-1.6,5.5-3.8,5.5c-1,0-1.8-0.7-1.8-1.7c0-0.2,0-0.3,0.1-0.5
	c0.4-1.3,0.8-2.6,1-4c0.1-0.8-0.5-1.6-1.3-1.7c-0.1,0-0.1,0-0.2,0c-1.2,0-2.2,1.2-2.2,2.9c0,0.6,0.1,1.2,0.4,1.8c0,0-1.2,5-1.4,6
	c-0.2,1.1-0.2,2.3,0,3.4c-6.2-2.4-9.2-9.4-6.8-15.5s9.4-9.2,15.5-6.8C25,6.6,28,11.1,28,16z"/>
</svg>
