<?xml version="1.0" encoding="UTF-8"?>
<svg id="Layer_1" xmlns="http://www.w3.org/2000/svg" version="1.1" viewBox="0 0 32 32">
  <!-- Generator: Adobe Illustrator 29.6.0, SVG Export Plug-In . SVG Version: 2.1.1 Build 207)  -->
  <defs>
    <style>
      .st0 {
        fill: #ed6e62;
      }
    </style>
  </defs>
  <path class="st0" d="M16.86,3.35c.94.25,1.92.32,2.87.57,3.06.81,6.32,3.16,7.72,6.05.67,1.39.93,2.95,1.25,4.45v3.05c-.31.83-.39,1.7-.67,2.54-1.31,3.84-5.22,7.28-9.14,8.24-.67.16-1.37.19-2.03.4h-1.47c-1.06-.26-2.13-.38-3.18-.71-3.68-1.17-7.02-3.92-8.24-7.67-.29-.88-.36-1.81-.64-2.69.07-.9-.1-1.94,0-2.82.52-4.72,5.78-9.89,10.26-11.01l1.92-.39h1.35ZM20.25,11.26c-1.38-.05-2.63.37-3.22,1.69l-.06-1.47h-3.84v10.05h3.84c.09-1.57-.12-3.25,0-4.8.17-2.34,1.26-2.18,3.28-1.97v-3.5Z"/>
</svg>