<?xml version="1.0" encoding="UTF-8"?>
<svg id="Layer_1" xmlns="http://www.w3.org/2000/svg" version="1.1" viewBox="0 0 32 32">
  <!-- Generator: Adobe Illustrator 29.1.0, SVG Export Plug-In . SVG Version: 2.1.0 Build 142)  -->
  <path d="M15.8,28.5c-3.4,0-6.5-1.4-8.4-4.3s-2-5-2.1-7.6c-.1-4,.9-8.5,4.2-11s5.2-2.2,7.9-2,5.9,1.6,7.7,4.2,1.3,2.3,1.6,3.6l-2.1.6c-.5-2.1-1.8-4-3.7-5.1s-7.1-1.5-9.7.2-3.8,6-3.7,9.5,1.4,8,5.6,9.3,4,.6,5.8.2c2.6-.6,5.1-2.9,4.6-5.8s-.9-2.2-1.9-2.8c-.2,1.3-.6,2.7-1.5,3.7-1.7,1.8-5,2-7,.6s-2.2-4.7-.1-6.3,3.2-1.2,5-1.2,1,0,1.6.2c-.1-.9-.5-1.9-1.4-2.3s-2.2-.5-3.1-.2-1.1.6-1.4,1.1l-1.8-1.2c.6-1,1.6-1.7,2.7-2.1s3.2-.4,4.5.3,2.4,2.4,2.7,4.1,0,.6.1,1c1.7.7,3.2,2.1,3.7,3.9s.1,4.9-1.6,6.7-4.4,2.9-7.3,3-.5,0-.7,0ZM19.5,16.5c-.4,0-.8-.1-1.2-.2-1.5-.1-4.5-.1-4.7,1.8s3,2.6,4.4,1.7,1.4-2.2,1.5-3.4Z"/>
</svg>