<?xml version="1.0" encoding="utf-8"?>
<!-- Generator: Adobe Illustrator 25.2.3, SVG Export Plug-In . SVG Version: 6.00 Build 0)  -->
<svg version="1.1" id="Layer_1" xmlns="http://www.w3.org/2000/svg" xmlns:xlink="http://www.w3.org/1999/xlink" x="0px" y="0px"
	 viewBox="0 0 32 32" style="enable-background:new 0 0 32 32;" xml:space="preserve">
<style type="text/css">
	.st0{fill:#010101;}
	.st1{fill:#EE2353;}
	.st2{fill:#FFFFFF;}
	.st3{fill:#6BCAD0;}
</style>
<circle class="st0" cx="16" cy="16" r="12.9"/>
<path class="st1" d="M11.4,20l0,0.1C11.5,20,11.5,20,11.4,20z M12.9,17.6c0.1-0.9,0.8-1.5,1.7-1.4c0,0,0,0,0,0c0.1,0,0.2,0,0.3,0.1
	v-1.4c0.2,0,0.4,0,0.5,0v1.9c-0.8-0.3-1.7,0.2-1.9,1c0,0.1-0.1,0.2-0.1,0.4c0,0.4,0.1,0.7,0.3,1c-0.1,0-0.1-0.1-0.2-0.1
	C13.1,18.7,12.9,18.2,12.9,17.6z M18.5,12.1c-0.3-0.4-0.5-0.8-0.6-1.3h0.5c0,0.6,0.2,1.2,0.6,1.7l0,0C18.8,12.5,18.6,12.3,18.5,12.1
	L18.5,12.1z M20.9,13.4v1.8c-0.4,0-0.8-0.1-1.1-0.2c-0.4-0.1-0.8-0.3-1.1-0.5l-0.3-0.2v3.8c0,0.4-0.1,0.8-0.2,1.2
	c-0.3,0.8-1,1.5-1.8,1.9c-0.4,0.2-0.9,0.3-1.4,0.3c-0.7,0-1.3-0.2-1.9-0.6c-0.2-0.1-0.4-0.3-0.5-0.5l0,0c0.6,0.4,1.2,0.6,1.9,0.6
	c0.5,0,1-0.1,1.4-0.3c0.4-0.2,0.8-0.5,1.1-0.8c0.3-0.3,0.5-0.6,0.6-1c0.1-0.4,0.2-0.8,0.2-1.2V14c0,0,0.3,0.2,0.3,0.2
	c0.3,0.2,0.7,0.4,1.1,0.5c0.4,0.1,0.8,0.1,1.1,0.2v-1.4C20.6,13.4,20.8,13.5,20.9,13.4z"/>
<path class="st2" d="M20.4,13.4v1.4c-0.4,0-0.8-0.1-1.1-0.2c-0.4-0.1-0.8-0.3-1.1-0.5c0,0-0.3-0.2-0.3-0.2v3.8
	c0,0.4-0.1,0.8-0.2,1.2c-0.3,0.8-0.9,1.5-1.8,1.9c-0.4,0.2-0.9,0.3-1.4,0.3c-0.7,0-1.3-0.2-1.9-0.6l0,0c-0.3-0.3-0.6-0.8-0.8-1.2
	l0,0c-0.1-0.4-0.2-0.8-0.2-1.2c0-0.5,0.1-1.1,0.4-1.5c0.2-0.4,0.5-0.7,0.8-1c0.3-0.2,0.6-0.4,0.9-0.6c0.4-0.2,0.8-0.2,1.2-0.2v1.4
	c-0.8-0.2-1.7,0.2-1.9,1c-0.2,0.6,0,1.3,0.6,1.7c0.1,0,0.1,0.1,0.2,0.1c0.1,0.1,0.2,0.2,0.3,0.3c0.5,0.3,1.1,0.4,1.6,0.1
	c0.4-0.2,0.7-0.5,0.8-0.9c0.1-0.2,0.1-0.5,0.1-0.7v-7.1h1.3c0.1,0.5,0.3,0.9,0.6,1.3c0.2,0.2,0.3,0.3,0.5,0.5
	c0.2,0.2,0.5,0.4,0.7,0.6C20,13.3,20.2,13.3,20.4,13.4L20.4,13.4z"/>
<path class="st3" d="M11.3,18.9L11.3,18.9C11.3,19,11.3,19,11.3,18.9z"/>
<path class="st3" d="M13.7,15.1c-0.3,0.1-0.7,0.3-0.9,0.6c-0.3,0.3-0.6,0.6-0.8,1c-0.3,0.5-0.4,1-0.4,1.5c0,0.4,0.1,0.8,0.2,1.2l0,0
	c0.1,0.3,0.3,0.6,0.5,0.9c0.1,0.1,0.2,0.2,0.3,0.3c-0.3-0.2-0.6-0.5-0.8-0.8c-0.2-0.3-0.4-0.6-0.5-0.9l0,0c-0.1-0.4-0.2-0.8-0.2-1.2
	c0-0.5,0.2-1.1,0.4-1.5c0.2-0.4,0.5-0.7,0.8-1c0.5-0.4,1-0.6,1.6-0.8c0.3-0.1,0.7-0.1,1,0v0.4C14.5,14.8,14.1,14.9,13.7,15.1z"/>
<path class="st3" d="M17.9,10.9h-1.3V18c0,0.2,0,0.5-0.1,0.7c-0.3,0.8-1.2,1.2-2,0.9c0,0,0,0,0,0c-0.1,0-0.3-0.1-0.4-0.2
	c-0.1-0.1-0.3-0.2-0.3-0.3c0.8,0.4,1.7,0.1,2.1-0.6c0-0.1,0.1-0.1,0.1-0.2C16,18,16,17.8,16,17.5v-7.1h1.8
	C17.8,10.6,17.8,10.7,17.9,10.9z M20.4,13v0.4c-0.2-0.1-0.4-0.1-0.6-0.2c-0.3-0.1-0.5-0.3-0.7-0.6c0.1,0,0.1,0.1,0.2,0.1
	C19.6,12.9,20,13,20.4,13L20.4,13z"/>
</svg>
