<?xml version="1.0" encoding="utf-8"?>
<!-- Generator: Adobe Illustrator 25.4.1, SVG Export Plug-In . SVG Version: 6.00 Build 0)  -->
<svg version="1.1" id="Layer_1" xmlns="http://www.w3.org/2000/svg" xmlns:xlink="http://www.w3.org/1999/xlink" x="0px" y="0px"
	 viewBox="0 0 32 32" style="enable-background:new 0 0 32 32;" xml:space="preserve">
<style type="text/css">
	.st0{fill-rule:evenodd;clip-rule:evenodd;fill:#001935;}
	.st1{fill-rule:evenodd;clip-rule:evenodd;fill:#FFFFFF;}
</style>
<g>
	<path class="st0" d="M16,3.2C8.9,3.2,3.1,8.9,3.1,16c0,7.1,5.8,12.9,12.9,12.9c7.1,0,12.9-5.8,12.9-12.9C28.9,8.9,23.1,3.2,16,3.2z
		"/>
	<path class="st1" d="M17,18.9c0,1.2,0.6,1.6,1.5,1.6h1.3v3h-2.5c-2.3,0-3.9-1.2-3.9-3.9V15h-2v-2.4c2.3-0.6,3.2-2.5,3.3-4.2H17v3.8
		h2.7V15H17V18.9z"/>
</g>
</svg>
