<?xml version="1.0" encoding="utf-8"?>
<!-- Generator: Adobe Illustrator 25.2.3, SVG Export Plug-In . SVG Version: 6.00 Build 0)  -->
<svg version="1.1" id="Layer_1" xmlns="http://www.w3.org/2000/svg" xmlns:xlink="http://www.w3.org/1999/xlink" x="0px" y="0px"
	 viewBox="0 0 32 32" style="enable-background:new 0 0 32 32;" xml:space="preserve">
<style type="text/css">
	.st0{fill:#1DA1F2;}
</style>
<path id="twitter" class="st0" d="M26.3,10.2c0,0.2,0,0.5,0,0.7c0,8.4-6.8,15.2-15.2,15.2c-2.9,0-5.7-0.8-8.2-2.4
	c0.4,0.1,0.8,0.1,1.3,0.1c2.4,0,4.7-0.8,6.6-2.3c-2.3,0-4.3-1.5-5-3.7c0.8,0.2,1.6,0.1,2.4-0.1C5.8,17.2,4,15,4,12.4v-0.1
	C4.8,12.8,5.6,13,6.4,13c-2.3-1.6-3.1-4.7-1.7-7.1c2.7,3.3,6.7,5.4,11,5.6c-0.1-0.4-0.1-0.8-0.1-1.2c0-2.9,2.4-5.3,5.3-5.3
	c1.5,0,2.9,0.6,3.9,1.7c1.2-0.2,2.3-0.7,3.4-1.3c-0.4,1.2-1.2,2.3-2.4,3C27,8.2,28,7.9,29,7.4C28.3,8.5,27.4,9.4,26.3,10.2z"/>
</svg>
