<?xml version="1.0" encoding="utf-8"?>
<!-- Generator: Adobe Illustrator 28.2.0, SVG Export Plug-In . SVG Version: 6.00 Build 0)  -->
<svg version="1.1" id="Layer_1" xmlns="http://www.w3.org/2000/svg" xmlns:xlink="http://www.w3.org/1999/xlink" x="0px" y="0px"
	 viewBox="0 0 32 32" style="enable-background:new 0 0 32 32;" xml:space="preserve">
<style type="text/css">
	.st0{fill:#FFFFFF;}
</style>
<path d="M23.8,29.4c-5.2,0-10.4,0-15.6,0c-0.3-0.1-0.5-0.1-0.8-0.2c-2.8-0.6-4.9-3.1-4.9-6c0-4.9,0-9.8,0-14.7
	c0-0.4,0.1-0.9,0.1-1.3c0.6-2.7,3-4.7,5.9-4.7c4.9,0,9.7,0,14.6,0c0.4,0,0.9,0,1.3,0.1c3,0.7,4.8,3.3,4.8,5.8c0,2.2,0,4.3,0,6.5
	c0,2.7,0,5.3,0,8c0,0.3,0,0.7-0.1,1c-0.2,2.5-2.1,4.7-4.7,5.2C24.4,29.3,24.1,29.4,23.8,29.4z M16,25.9c1.9,0,3.9-0.1,5.8-0.1
	c1.2,0,2.2-0.9,2.3-2.1c0.1-0.5,0.1-0.9,0.1-1.4c0-1.8,0.1-3.6-0.1-5.3c0-0.5-0.2-1-0.6-1.4c-0.5-0.6-1.2-0.8-2-0.9
	c-1.5,0-3-0.1-4.4-0.1c-1.6,0-3.1,0-4.7,0.1c-0.8,0-1.7,0-2.5,0.1c-1.1,0.1-1.9,0.9-2,2c-0.1,0.7-0.1,1.4-0.1,2.1
	c0,1.6,0,3.1,0.1,4.7c0.1,1.2,1.1,2.1,2.3,2.2C12.1,25.8,14.1,25.9,16,25.9z M16.9,10.7C16.9,10.7,16.9,10.7,16.9,10.7
	c0-0.5,0-1,0-1.6c0-0.4-0.1-0.6-0.3-0.9c-0.4-0.6-1.9-0.6-2.3,0.1c-0.2,0.3-0.3,0.7-0.3,1c0,0.9,0,1.7,0,2.6c0,0.2,0,0.4,0.1,0.6
	c0.2,0.8,0.8,1.1,1.7,1c0.7-0.1,1.2-0.6,1.2-1.4C16.9,11.7,16.9,11.2,16.9,10.7z M12.8,6.1c-0.2,0.9-0.4,1.8-0.7,2.7
	c-0.2-0.9-0.5-1.8-0.7-2.7c-0.5,0-0.8,0-1.2,0c0,0.2,0.1,0.3,0.1,0.4c0.3,0.9,0.5,1.8,0.8,2.7c0.3,0.8,0.4,1.6,0.4,2.5
	c0,0.4,0,0.9,0,1.3c0,0.1,0,0.3,0,0.4c0.4,0,0.8,0,1.2,0c0-0.9,0-1.7,0-2.5c0-0.3,0.1-0.7,0.2-1c0.3-1.1,0.7-2.2,1-3.3
	c0-0.1,0-0.3,0.1-0.4C13.6,6.1,13.3,6.1,12.8,6.1z M19.5,8c0,0.5,0,0.9,0,1.3c0,0.8,0,1.7,0,2.5c0,0.4-0.3,0.6-0.7,0.5
	c0-0.7,0-1.4,0-2.1c0-0.7,0-1.4,0-2.2c-0.4,0-0.8,0-1.1,0c0,0.1,0,0.2,0,0.3c0,1.4,0,2.8,0,4.2c0,0.2,0,0.3,0.1,0.5
	c0.1,0.4,0.5,0.6,0.9,0.5c0.3-0.1,0.5-0.2,0.7-0.4c0,0,0.1,0,0.1-0.1c0,0.1,0.1,0.2,0.1,0.4c0.3,0,0.7,0,1,0c0.1-0.5,0.2-5,0-5.4
	C20.3,8,19.9,8,19.5,8z"/>
<path class="st0" d="M16,25.9c-1.9,0-3.9-0.1-5.8-0.1c-1.2,0-2.3-0.9-2.3-2.2c-0.1-1.6-0.1-3.1-0.1-4.7c0-0.7,0-1.4,0.1-2.1
	c0.1-1.1,0.9-1.9,2-2c0.8-0.1,1.7-0.1,2.5-0.1c1.6,0,3.1-0.1,4.7-0.1c1.5,0,3,0.1,4.4,0.1c0.8,0,1.5,0.2,2,0.9
	c0.3,0.4,0.5,0.8,0.6,1.4c0.2,1.8,0.1,3.5,0.1,5.3c0,0.5,0,0.9-0.1,1.4c-0.1,1.1-1.1,2-2.3,2.1C19.9,25.8,17.9,25.9,16,25.9z
	 M16.4,16.6c0,2.4,0,4.7,0,7.1c0.4,0,0.8,0.2,1-0.3c0.2,0.1,0.3,0.2,0.5,0.3c0.6,0.2,1.1,0,1.2-0.6c0-0.1,0-0.3,0-0.4
	c0-1,0-2.1,0-3.1c0-0.2,0-0.4-0.1-0.6c-0.2-0.5-0.7-0.7-1.2-0.5c-0.2,0.1-0.3,0.2-0.5,0.3c0-0.8,0-1.5,0-2.3
	C16.9,16.6,16.7,16.6,16.4,16.6z M14.4,18.6c0,0.2,0,0.4,0,0.6c0,1,0,2.1,0,3.1c0,0.4-0.1,0.6-0.4,0.7c-0.3,0.1-0.4,0-0.5-0.3
	c0-0.1,0-0.3,0-0.4c0-1.1,0-2.2,0-3.3c0-0.1,0-0.3,0-0.4c-0.3,0-0.6,0-0.9,0c0,0.1,0,0.2,0,0.3c0,1.3,0,2.6,0,3.8c0,0.1,0,0.3,0,0.4
	c0.1,0.7,0.5,0.9,1.1,0.6c0.2-0.1,0.4-0.3,0.6-0.5c0,0.2,0.1,0.3,0.1,0.5c0.3,0,0.6,0,0.9,0c0-1.7,0-3.5,0-5.2
	C15,18.6,14.7,18.6,14.4,18.6z M20.9,21.2c0.6,0,1.3,0,1.9-0.1c0-0.6,0-1.1,0-1.6c0-0.5-0.2-0.9-0.7-1.1c-0.9-0.3-1.9,0-2,1.1
	c0,0.2,0,0.3,0,0.5c0,0.7,0,1.4,0,2.1c0,0.2,0,0.5,0.1,0.7c0.2,0.8,0.7,1.1,1.4,1c0.8,0,1.2-0.5,1.3-1.2c0-0.2,0-0.5,0-0.7
	c-0.3,0-0.6,0-0.8,0c0,0.3-0.1,0.5-0.1,0.7c0,0.2-0.2,0.3-0.4,0.3c-0.2,0-0.4-0.1-0.4-0.3c0-0.1-0.1-0.2-0.1-0.3
	C20.9,22.1,20.9,21.7,20.9,21.2z M11.2,23.7c0-0.1,0.1-0.1,0.1-0.1c0-1.7,0-3.5,0-5.2c0-0.3-0.1-0.5,0.1-0.8c0.3,0,0.7,0,1-0.1
	c0-0.3,0-0.6,0-0.9c-1.1,0-2.2,0-3.2,0c0,0.3,0,0.6,0,0.9c0.4,0,0.7,0,1.1,0c0,2.1,0,4.1,0,6.2C10.6,23.7,10.9,23.7,11.2,23.7z"/>
<path class="st0" d="M16.9,10.7c0,0.5,0,1,0,1.5c0,0.7-0.5,1.3-1.2,1.4c-0.9,0.1-1.5-0.3-1.7-1c0-0.2-0.1-0.4-0.1-0.6
	c0-0.9,0-1.7,0-2.6c0-0.4,0.1-0.7,0.3-1c0.5-0.6,1.9-0.6,2.3-0.1c0.2,0.3,0.4,0.6,0.3,0.9C16.9,9.7,16.9,10.2,16.9,10.7
	C16.9,10.7,16.9,10.7,16.9,10.7z M15.8,10.6C15.8,10.6,15.8,10.6,15.8,10.6c0-0.4,0-0.8,0-1.2c0-0.4-0.1-0.5-0.3-0.5
	c-0.3,0-0.4,0.1-0.4,0.6c0,0.8,0,1.7,0,2.5c0,0.1,0,0.2,0,0.3c0.1,0.1,0.2,0.2,0.3,0.2c0.1,0,0.3-0.1,0.3-0.2c0.1-0.1,0-0.2,0.1-0.4
	C15.8,11.5,15.8,11.1,15.8,10.6z"/>
<path class="st0" d="M12.8,6.1c0.4,0,0.8,0,1.2,0c0,0.1,0,0.3-0.1,0.4c-0.3,1.1-0.7,2.2-1,3.3c-0.1,0.3-0.2,0.7-0.2,1
	c0,0.8,0,1.7,0,2.5c-0.4,0-0.8,0-1.2,0c0-0.1,0-0.3,0-0.4c0-0.4,0-0.9,0-1.3c0.1-0.9-0.1-1.7-0.4-2.5c-0.3-0.9-0.6-1.8-0.8-2.7
	c0-0.1-0.1-0.2-0.1-0.4c0.4,0,0.8,0,1.2,0c0.2,0.9,0.5,1.8,0.7,2.7C12.4,7.9,12.6,7,12.8,6.1z"/>
<path class="st0" d="M19.5,8c0.4,0,0.7,0,1,0c0.1,0.5,0.1,5,0,5.4c-0.3,0-0.6,0-1,0c0-0.1-0.1-0.2-0.1-0.4c-0.1,0-0.1,0-0.1,0.1
	c-0.2,0.1-0.5,0.3-0.7,0.4c-0.4,0.1-0.7-0.1-0.9-0.5c-0.1-0.2-0.1-0.3-0.1-0.5c0-1.4,0-2.8,0-4.2c0-0.1,0-0.2,0-0.3
	c0.4,0,0.7,0,1.1,0c0,0.7,0,1.4,0,2.2c0,0.7,0,1.4,0,2.1c0.4,0.1,0.7-0.1,0.7-0.5c0-0.8,0-1.7,0-2.5C19.5,8.9,19.5,8.5,19.5,8z"/>
<path d="M16.4,16.6c0.3,0,0.5,0,0.8,0c0,0.7,0,1.5,0,2.3c0.2-0.1,0.4-0.3,0.5-0.3c0.5-0.3,1-0.1,1.2,0.5c0.1,0.2,0.1,0.4,0.1,0.6
	c0,1,0,2.1,0,3.1c0,0.1,0,0.3,0,0.4c-0.2,0.6-0.7,0.9-1.2,0.6c-0.2-0.1-0.3-0.2-0.5-0.3c-0.2,0.5-0.6,0.3-1,0.3
	C16.4,21.4,16.4,19,16.4,16.6z M18.2,21.2C18.2,21.2,18.2,21.2,18.2,21.2c0-0.5,0-1,0-1.5c0-0.3-0.2-0.5-0.5-0.4
	c-0.3,0-0.5,0.2-0.5,0.5c0,1,0,2,0,2.9c0,0.3,0.3,0.5,0.5,0.5c0.2,0,0.4-0.2,0.4-0.5C18.2,22.1,18.2,21.7,18.2,21.2z"/>
<path d="M14.4,18.6c0.3,0,0.6,0,0.9,0c0,1.7,0,3.4,0,5.2c-0.3,0-0.6,0-0.9,0c0-0.2,0-0.3-0.1-0.5c-0.2,0.2-0.4,0.3-0.6,0.5
	c-0.6,0.3-1,0.1-1.1-0.6c0-0.1,0-0.3,0-0.4c0-1.3,0-2.6,0-3.8c0-0.1,0-0.2,0-0.3c0.3,0,0.6,0,0.9,0c0,0.1,0,0.3,0,0.4
	c0,1.1,0,2.2,0,3.3c0,0.1,0,0.3,0,0.4c0,0.3,0.2,0.4,0.5,0.3c0.3-0.1,0.4-0.3,0.4-0.7c0-1,0-2.1,0-3.1
	C14.4,18.9,14.4,18.8,14.4,18.6z"/>
<path d="M20.9,21.2c0,0.5,0,0.8,0,1.2c0,0.1,0,0.2,0.1,0.3c0.1,0.2,0.2,0.3,0.4,0.3c0.2,0,0.4-0.1,0.4-0.3c0-0.2,0.1-0.5,0.1-0.7
	c0.3,0,0.5,0,0.8,0c0,0.2,0,0.5,0,0.7c-0.1,0.7-0.5,1.2-1.3,1.2c-0.7,0-1.2-0.3-1.4-1C20,22.7,20,22.4,20,22.2c0-0.7,0-1.4,0-2.1
	c0-0.2,0-0.3,0-0.5c0.1-1.1,1.1-1.4,2-1.1c0.5,0.2,0.7,0.6,0.7,1.1c0,0.5,0,1,0,1.6C22.2,21.2,21.5,21.2,20.9,21.2z M20.9,20.4
	c0.3,0,0.6,0,1,0c0-0.2,0-0.4,0-0.5c0-0.1,0-0.2,0-0.3c-0.1-0.3-0.3-0.4-0.5-0.4c-0.3,0-0.4,0.2-0.4,0.4
	C20.9,19.9,20.9,20.2,20.9,20.4z"/>
<path d="M11.2,23.7c-0.3,0-0.6,0-1,0c0-2.1,0-4.1,0-6.2c-0.4,0-0.7,0-1.1,0c0-0.3,0-0.6,0-0.9c1.1,0,2.1,0,3.2,0c0,0.3,0,0.6,0,0.9
	c-0.3,0-0.7,0-1,0.1c-0.2,0.3-0.1,0.5-0.1,0.8c0,1.7,0,3.5,0,5.2C11.3,23.6,11.3,23.7,11.2,23.7z"/>
<path d="M15.8,10.6c0,0.4,0,0.9,0,1.3c0,0.1,0,0.3-0.1,0.4c-0.1,0.1-0.2,0.2-0.3,0.2c-0.1,0-0.2-0.1-0.3-0.2c0-0.1,0-0.2,0-0.3
	c0-0.8,0-1.7,0-2.5c0-0.4,0.1-0.6,0.4-0.6c0.2,0,0.3,0.1,0.3,0.5C15.8,9.8,15.8,10.2,15.8,10.6C15.8,10.6,15.8,10.6,15.8,10.6z"/>
<path class="st0" d="M18.2,21.2c0,0.5,0,0.9,0,1.4c0,0.4-0.1,0.5-0.4,0.5c-0.3,0-0.5-0.2-0.5-0.5c0-1,0-2,0-2.9
	c0-0.3,0.2-0.4,0.5-0.5c0.3,0,0.4,0.1,0.5,0.4C18.2,20.2,18.2,20.7,18.2,21.2C18.2,21.2,18.2,21.2,18.2,21.2z"/>
<path class="st0" d="M20.9,20.4c0-0.3,0-0.5,0-0.8c0-0.2,0.2-0.4,0.4-0.4c0.3,0,0.4,0.1,0.5,0.4c0,0.1,0,0.2,0,0.3
	c0,0.2,0,0.3,0,0.5C21.6,20.4,21.3,20.4,20.9,20.4z"/>
</svg>
