<?xml version="1.0" encoding="UTF-8"?>
<svg id="Layer_6" data-name="Layer 6" xmlns="http://www.w3.org/2000/svg" version="1.1" viewBox="0 0 360 360">
  <defs>
    <style>
      .cls-1 {
        fill: #fff;
        stroke-width: 0px;
      }
    </style>
  </defs>
  <path class="cls-1" d="M127.9,232.7S8,324.1,22,338.1s105.9-105.4,105.9-105.4Z"/>
  <path class="cls-1" d="M135.1,228.1s-76.2,95.1-62.5,103.4,62.5-103.4,62.5-103.4Z"/>
  <path class="cls-1" d="M88.7,286.1s-36.1,37-30.7,41.1c5.5,4,30.7-41.1,30.7-41.1Z"/>
  <path class="cls-1" d="M115.1,278.5s-26,44.7-19.7,47.3c6.2,2.6,19.7-47.3,19.7-47.3Z"/>
  <path class="cls-1" d="M177.2,213.2s16.9,48.8,23,45.8c6-3-23-45.8-23-45.8Z"/>
  <path class="cls-1" d="M198.3,214.1s150.7,2.7,147.8,22.3c-3,19.6-147.8-22.3-147.8-22.3Z"/>
  <path class="cls-1" d="M190.5,214.9s129.2,31.6,122.9,47.9c-6.4,16.3-122.9-47.9-122.9-47.9Z"/>
  <path class="cls-1" d="M186.3,215s95.7,51.5,87.4,63.1c-8.4,11.5-87.4-63.1-87.4-63.1Z"/>
  <path class="cls-1" d="M181.3,213.6s66.3,59.5,57.5,67.1c-9,7.7-57.5-67.1-57.5-67.1Z"/>
  <path class="cls-1" d="M205.6,212.7s66.1-16.3,67.1-7.4c1,8.8-67.1,7.4-67.1,7.4Z"/>
  <path class="cls-1" d="M208.8,151.7s-42.6,10.2-26.4,26.4,26.4-26.4,26.4-26.4Z"/>
  <path class="cls-1" d="M132.4,225.4s-95.1,76.2-103.4,62.5c-8.3-13.7,103.4-62.5,103.4-62.5Z"/>
  <path class="cls-1" d="M74.4,271.8s-37,36.1-41.1,30.7c-4-5.4,41.1-30.7,41.1-30.7Z"/>
  <path class="cls-1" d="M82,245.5s-44.7,26-47.3,19.7c-2.6-6.3,47.3-19.7,47.3-19.7Z"/>
  <path class="cls-1" d="M147.3,183.3s-48.8-16.9-45.8-23c3.1-6,45.8,23,45.8,23Z"/>
  <path class="cls-1" d="M146.5,162.2s-2.7-150.7-22.3-147.8,22.3,147.8,22.3,147.8Z"/>
  <path class="cls-1" d="M145.6,170.1s-31.6-129.2-47.9-122.9,47.9,122.9,47.9,122.9Z"/>
  <path class="cls-1" d="M145.6,174.2s-51.5-95.7-63.1-87.4,63.1,87.4,63.1,87.4Z"/>
  <path class="cls-1" d="M146.9,179.2s-59.5-66.3-67.1-57.5c-7.6,9,67.1,57.5,67.1,57.5Z"/>
  <path class="cls-1" d="M147.8,155s16.3-66.1,7.4-67.1c-8.8-1.1-7.4,67.1-7.4,67.1Z"/>
</svg>