<?xml version="1.0" encoding="UTF-8"?>
<svg id="Layer_1" xmlns="http://www.w3.org/2000/svg" version="1.1" viewBox="0 0 704.8 288">
  <!-- Generator: Adobe Illustrator 29.1.0, SVG Export Plug-In . SVG Version: 2.1.0 Build 142)  -->
  <defs>
    <style>
      .st0 {
        fill: #013266;
      }

      .st1 {
        fill: #fff;
      }

      .st2 {
        fill: #e01332;
      }

      .st3 {
        fill: #fdfdfd;
      }
    </style>
  </defs>
  <path class="st1" d="M18.5,131.5v46.5s-.1,11.2,0,22.5l11.3,8-6.8,14.5s3.8,12.9,14.4,22.5l30.5,10.5,254.6-7.5V32.1l-285.2-4-18.9,103.5Z"/>
  <path class="st0" d="M244.5,19c126.4,0,252.9,0,379.4.1,29.5,1.6,62.6,34.9,62.6,64.4v184.5c-126,0-252,.1-378,0v-24c0-7,0-14,0-21s0-15.3,0-23,0-14,0-21-1-16.4-1-24,0-15.3,0-23,1-14.8,1-22,.4-15.6,0-23-2-13.8-5-22-6.1-14.5-14-23-4-4.9-6.5-7c-11.5-9.5-24-13.3-38.5-16ZM356.5,63v33h7v-19l9.5,13,8.5-13v19h7v-33c-10.7-2.5-10.8,9.5-17,15-3.5-6.4-6-17.4-15-15ZM425.5,96l-10.5-32c-1.2-1.4-7.1-1.5-8.6-.5s-10,28.4-11,32.5h6.9c0-.1,2.8-5.9,2.8-5.9l11.8-.2c1.7,5.4,2.4,6.9,8.6,6.1ZM432.5,96h17.5c.3,0,4.3-2.4,5-3,9.1-6.8,9.1-21.1-.5-27.5s-5-2.5-5.5-2.5h-16.5v33ZM489,63h-18.5v33h20l-.9-5.6-13.1-.4v-8s12-.6,12-.6v-5.4s-12,0-12,0v-6c4.6-.8,15.3,2.9,14-4.5-.2-.9-.7-2.3-1.5-2.5ZM519.5,63h-7v33h7v-33ZM547.5,81c-6.5-4.8-8.9-18.9-18-18v33c2.4,0,5.4.8,7-1.5v-16.5c6.3,4.8,9,18.9,18,18v-33c-2.4,0-5.4-.8-7,1.5v16.5ZM526.3,139.9c-.2-8.4-11.6-18.3-18.9-21.4-43.4-18.4-74,34.9-33.3,54.3,7.7,3.7,31.7,8.3,34.6,15.4,3.2,7.8-2.3,13.6-9.8,14.7-12.8,1.7-25-1.9-29.5-14.9l-18,9.5c10.5,38.6,85.8,34.7,78.6-10.6-4-25.6-33.4-22.1-48.9-33.1s-3.1-18.3,7.9-18.9c9.1-.5,16.7,5.7,21.1,13l16.2-8.1ZM377.5,192.5v-74l-1.5-1.5h-19.5v77.5c0,2,3.8,10.6,5.2,12.8,14,22.9,58.1,22,70.6-2,1.1-2.1,4.2-11,4.2-12.8v-75.5h-21v73.5c0,.9-3.4,7.2-4.3,8.2-7.5,7.5-31.2,6.3-33.7-6.2ZM635.5,222l-36.5-104-25.9-1-36.6,105.1h21.5l7.1-19.1,41.7.2,8.2,18.8h20.5Z"/>
  <path class="st0" d="M140.5,19v113c-39.1.2-79.1,1.9-118.6,1.1l-3.4-1.6V19c40.6,0,81.4,0,122,0ZM52.5,40c-6,1.2-4.8-1.9-8-5-.4,3.8-2.1,5.5-6,5,1.3,4,3.9,4.1,2,9,1.9.5,3.2-1.7,4.7-1.9s2.4,2.4,4.3,1.9c.3-1.4-1-3.2-.8-4.4.5-2.6,4.6-1.6,3.8-4.6ZM75.5,40c-6,1.2-4.8-1.9-8-5l-1.1,4.9h-4.9c1.1,4.1,4.4,4.3,2,9.1,1.9.5,3.2-1.7,4.7-1.9s2.4,2.4,4.3,1.9c.3-1.4-1-3.2-.8-4.4.5-2.6,4.6-1.6,3.8-4.6ZM121.5,40c-6,1.2-4.8-1.9-8-5l-1.1,4.9h-4.9c1.1,4.1,4.4,4.3,2,9.1,1.9.5,3.2-1.7,4.7-1.9s2.4,2.4,4.3,1.9c.1-1.7-.4-3.8.1-5.4s3.7-.7,2.9-3.6ZM92.4,36c-4.4,1.5-1.6,5.7-9,4,2.6,3.5,5.2,4.1,3,9,1.9.5,3.2-1.7,4.7-1.9s2.4,2.4,4.3,1.9c.1-1.7-.4-3.8.1-5.4s3.7-.7,2.9-3.6l-5.1-.4-.9-3.6ZM46.4,58c-3.1-.9-1.8,2.5-3.2,3.8s-3.5.9-4.8,1.3c2.2,2.6,3.7,4.2,3,8l7-1c-.9-4.3,1.5-4,4-6.5-2.8-1.7-6.5-1-6-5.5ZM69.4,58c-3.1-.9-1.8,2.5-3.2,3.8s-3.5.9-4.8,1.3c3.1,3.3,3.6,4.6,2,9l4.5-2.8,4.5,1.8c-.7-3.8.8-5.4,3-8-3.2-.6-6.4-1-6-5ZM92.4,58l-2.1.6c-.2,4.2-3.5,3.9-6.9,4.4.3,1.9,3.2,1.3,3.9,3.7s-.9,3.5-.9,5.3c3.7-1.4,4.8-2.8,9-1-.7-3.8.8-5.4,3-8-3.2-.6-6.4-1-6-5ZM115.4,58l-2.1.6c-.2,4.8-3.3,2.4-5.9,4.9,3.6,2.6,3.2,4.6,2,8.5,3.7-1.4,4.8-2.8,9-1-.7-3.8.8-5.4,3-8-3.2-.6-6.4-1-6-5ZM52.5,85.1c-6,1.2-4.8-1.9-8-5-.4,4.8-2.9,5-7,5.5,3.5,2.9,4.4,4,3,8.5,2,.5,2.7-2,4.5-2s2.5,2.5,4.5,2c-.6-4.1.3-6.1,3-9ZM75.5,85.1c-6,1.2-4.8-1.9-8-5-.4,4.8-2.9,5-7,5.5,3.5,2.9,4.4,4,3,8.5,2,.5,2.7-2,4.5-2s2.5,2.5,4.5,2c-.6-4.1.3-6.1,3-9ZM98.5,85.1c-6,1.2-4.8-1.9-8-5-.4,4.8-2.9,5-7,5.5,3.2,2.9,4.9,4.1,3,8.5,2,.5,2.7-2,4.5-2s2.5,2.5,4.5,2c-.6-4.1.3-6.1,3-9ZM121.5,85c-6,1.2-4.8-1.9-8-5-.4,3.8-2.1,5.6-6,5l3.1,3.7-1.1,5.3c2,.5,2.7-2,4.5-2s2.5,2.5,4.5,2c.1-1.7-.4-3.8.1-5.4s3.7-.7,2.9-3.6ZM75.4,107c-6,1.2-4.8-1.9-8-5l-1.1,4.9h-4.9c1.1,4.1,4.4,4.3,2,9.1,2.1.8,3.9-2.1,5.3-1.8s1.8,2.4,3.7,1.9c-1.2-4.4,2.2-5.5,3-9ZM98.4,107c-6,1.2-4.8-2-8-5,.4,7.4-4.2,3.2-7,7l3.9,2.7-.9,4.3c3.5.2,4.8-3.9,7.5,0h1.5c-1.2-4.4,2.2-5.5,3-9ZM46.4,103c-3-.9-2.4,3.7-3.6,4.1h-5.4c-.7,3,3.2,1.9,3.9,4.6s-1.3,3.9-.9,4.3c4.3-1.2,4.6-2,9,0-2-6.1,1.4-4.6,3-9l-5.1-.4-.9-3.6ZM115.4,103l-2.1.6-1.1,3.3h-4.9c.8,3.6,4.2,4.8,3,9.1,4.3-2,3.7-2,8,0-.7-4.7-1.3-5,3-7.5l-5.1-1.9-.9-3.6Z"/>
  <path class="st2" d="M307.5,155c0,7.6,1,16,1,24l-290-1v-23h289Z"/>
  <path class="st2" d="M308.5,200c0,7.7,0,15.3,0,23H23c0,0-4.6-22.5-4.6-22.5l290-.5Z"/>
  <path class="st2" d="M308.5,268c-74.8,0-149.7,0-224.5,0-17.6-1.7-34.8-9.1-46.5-22.5l271-1.5v24Z"/>
  <path class="st2" d="M308.5,110c0,7.2-1,15.2-1,22-55.6.2-111.4-.3-167,0v-22h168Z"/>
  <path class="st2" d="M244.5,19c14.5,2.7,27,6.5,38.5,16s4.4,4.6,6.5,7h-149v-23c34.6,0,69.4,0,104,0Z"/>
  <path class="st3" d="M635.5,222h-20.5l-8.2-18.8-41.7-.2-7.1,19.1h-21.5l36.6-105.1,25.9,1,36.5,104ZM600.5,184l-15-42-13,42h28Z"/>
  <path class="st3" d="M377.5,192.5c2.5,12.4,26.1,13.7,33.7,6.2s4.3-7.2,4.3-8.2v-73.5h21v75.5c0,1.8-3.1,10.7-4.2,12.8-12.6,24-56.7,24.9-70.6,2-1.3-2.2-5.2-10.8-5.2-12.8v-77.5h19.5l1.5,1.5v74Z"/>
  <path class="st3" d="M526.3,139.9l-16.2,8.1c-4.4-7.3-12-13.5-21.1-13-11,.6-18.1,11.6-7.9,18.9,15.5,11,44.8,7.5,48.9,33.1,7.1,45.3-68.1,49.2-78.6,10.6l18-9.5c4.5,12.9,16.7,16.6,29.5,14.9,7.5-1,13-6.9,9.8-14.7-2.9-7.1-26.9-11.7-34.6-15.4-40.6-19.5-10.1-72.7,33.3-54.3,7.3,3.1,18.7,13,18.9,21.4Z"/>
  <path class="st3" d="M308.5,87c.4,7.4,0,15.5,0,23h-168v-23h168Z"/>
  <path class="st2" d="M303.5,65c3,8.2,4.5,13,5,22h-168v-22h163Z"/>
  <path class="st3" d="M289.5,42c7.9,8.5,10,12,14,23h-163v-23h149Z"/>
  <path class="st3" d="M356.5,63c9-2.4,11.5,8.6,15,15,6.2-5.5,6.3-17.5,17-15v33h-7v-19l-8.5,13-9.5-13v19h-7v-33Z"/>
  <path class="st3" d="M432.5,96v-33h16.5c.4,0,4.7,2,5.5,2.5,9.7,6.3,9.6,20.6.5,27.5-.7.6-4.7,3-5,3h-17.5ZM439.5,89c21.4,4.3,21.4-23.3,0-19v19Z"/>
  <path class="st3" d="M547.5,81v-16.5c1.6-2.3,4.6-1.4,7-1.5v33c-9,.9-11.7-13.2-18-18v16.5c-1.6,2.3-4.6,1.4-7,1.5v-33c9.1-.9,11.5,13.2,18,18Z"/>
  <path class="st3" d="M425.5,96c-6.2.8-6.9-.7-8.6-6.1l-11.8.2-2.8,5.7h-6.9c.9-4,9.5-31.5,11-32.4s7.4-.9,8.6.5l10.5,32ZM411.4,72c-2.6-.4-1.6.2-2.1,1.4s-3.3,10.2-2.9,10.6h8s-3-12-3-12Z"/>
  <path class="st3" d="M489,63c.9.3,1.4,1.6,1.5,2.5,1.2,7.3-9.4,3.7-14,4.5v6s12,0,12,0v5.4s-12,.6-12,.6v8s13.1.4,13.1.4l.9,5.6h-20v-33h18.5Z"/>
  <rect class="st3" x="512.5" y="63" width="7" height="33"/>
  <path class="st3" d="M75.4,107c-.8,3.5-4.2,4.6-3,9-1.9.6-2.5-1.6-3.7-1.9s-3.2,2.6-5.3,1.8c2.4-4.8-.9-5.1-2-9h4.9c0-.1,1.1-5,1.1-5,3.2,3.1,2,6.2,8,5Z"/>
  <path class="st3" d="M46.4,103l.9,3.6,5.1.4c-1.6,4.4-5,2.9-3,9-4.3-2-4.7-1.2-9,0-.4-.4,1.2-2.9.9-4.3-.6-2.7-4.6-1.6-3.9-4.7h5.4c1.2-.3.6-4.9,3.6-4Z"/>
  <path class="st3" d="M98.4,107c-.8,3.5-4.2,4.6-3,9h-1.5c-2.7-3.9-4,.2-7.5,0l.9-4.3-3.9-2.7c2.8-3.8,7.4.4,7-7,3.2,3.1,2,6.2,8,5Z"/>
  <path class="st3" d="M115.4,58c-.4,4,2.8,4.4,6,5-2.2,2.6-3.7,4.2-3,8-4.1-1.8-5.3-.4-9,1,1.2-3.9,1.7-5.9-2-8.5,2.6-2.5,5.7-.1,5.9-4.9l2.1-.6Z"/>
  <path class="st3" d="M92.4,58c-.4,4,2.8,4.4,6,5-2.2,2.6-3.7,4.2-3,8-4.1-1.8-5.3-.4-9,1,0-1.8,1.4-3.4.9-5.3s-3.6-1.8-3.9-3.7c3.5-.5,6.7-.2,6.9-4.4l2.1-.6Z"/>
  <path class="st3" d="M52.5,85.1c-2.7,2.9-3.6,4.9-3,9-2,.5-2.7-2-4.5-2s-2.5,2.5-4.5,2c1.4-4.5.5-5.6-3-8.5,4.1-.5,6.6-.7,7-5.5,3.2,3.1,2,6.2,8,5Z"/>
  <path class="st3" d="M75.5,85.1c-2.7,2.9-3.6,4.9-3,9-2,.5-2.7-2-4.5-2s-2.5,2.5-4.5,2c1.4-4.5.5-5.6-3-8.5,4.1-.5,6.6-.7,7-5.5,3.2,3.1,2,6.2,8,5Z"/>
  <path class="st3" d="M121.5,40c.9,2.9-2.3,1.7-2.9,3.6s0,3.7-.1,5.4c-2,.5-2.6-2-4.3-1.9s-2.7,2.4-4.7,1.9c2.4-4.8-.9-5-2-9h4.9c0-.1,1.1-5,1.1-5,3.2,3.1,2,6.2,8,5Z"/>
  <path class="st3" d="M98.5,85.1c-2.7,2.9-3.6,4.9-3,9-2,.5-2.7-2-4.5-2s-2.5,2.5-4.5,2c1.9-4.4.3-5.6-3-8.5,4.1-.5,6.6-.7,7-5.5,3.2,3.1,2,6.2,8,5Z"/>
  <path class="st3" d="M92.4,36l.9,3.6,5.1.4c.9,2.9-2.3,1.7-2.9,3.6s0,3.7-.1,5.4c-2,.5-2.6-2-4.3-1.9s-2.7,2.4-4.7,1.9c2.2-4.9-.4-5.5-3-9,7.4,1.7,4.6-2.5,9-4Z"/>
  <path class="st3" d="M52.5,40c.8,3.1-3.3,2.1-3.8,4.6s1.1,2.9.8,4.4c-2,.5-2.6-2-4.3-1.9s-2.7,2.4-4.7,1.9c1.9-4.9-.7-5-2-9,3.9.5,5.6-1.2,6-5,3.2,3.1,2,6.2,8,5Z"/>
  <path class="st3" d="M69.4,58c-.4,4,2.8,4.4,6,5-2.2,2.6-3.7,4.2-3,8l-4.5-1.8-4.5,2.8c1.6-4.4,1.1-5.7-2-9,1.3-.4,3.9-.5,4.8-1.3,1.4-1.2.2-4.7,3.2-3.8Z"/>
  <path class="st3" d="M121.5,85c.9,2.9-2.3,1.7-2.9,3.6s0,3.7-.1,5.4c-2,.5-2.7-2-4.5-2s-2.5,2.5-4.5,2l1.1-5.3-3.1-3.7c3.9.5,5.6-1.2,6-5,3.2,3.1,2,6.2,8,5Z"/>
  <path class="st3" d="M75.5,40c.8,3.1-3.3,2.1-3.8,4.6s1.1,2.9.8,4.4c-2,.5-2.6-2-4.3-1.9s-2.7,2.4-4.7,1.9c2.4-4.8-.9-5-2-9h4.9c0-.1,1.1-5,1.1-5,3.2,3.1,2,6.2,8,5Z"/>
  <path class="st3" d="M115.4,103l.9,3.6,5.1,1.9c-4.3,2.5-3.7,2.8-3,7.5-4.3-2-3.7-2-8,0,1.2-4.4-2.2-5.5-3-9h4.9c0-.1,1.1-3.4,1.1-3.4l2.1-.6Z"/>
  <path class="st3" d="M46.4,58c-.5,4.5,3.2,3.8,6,5.5-2.5,2.5-4.9,2.2-4,6.5l-7,1c.7-3.8-.8-5.4-3-8,1.3-.4,3.9-.5,4.8-1.3,1.4-1.2.2-4.7,3.2-3.8Z"/>
  <polygon class="st0" points="600.5 184 572.5 184 585.5 142 600.5 184"/>
  <path class="st0" d="M439.5,89v-19c21.4-4.3,21.4,23.3,0,19Z"/>
  <path class="st0" d="M411.4,72l3,12h-8c-.4-.4,2.3-9.3,2.9-10.6s-.5-1.8,2.1-1.4Z"/>
</svg>