<?xml version="1.0" encoding="utf-8"?>
<!-- Generator: Adobe Illustrator 27.8.1, SVG Export Plug-In . SVG Version: 6.00 Build 0)  -->
<svg version="1.1"
	 id="Layer_1" xmlns:dc="http://purl.org/dc/elements/1.1/" xmlns:cc="http://creativecommons.org/ns#" xmlns:rdf="http://www.w3.org/1999/02/22-rdf-syntax-ns#"
	 xmlns="http://www.w3.org/2000/svg" xmlns:xlink="http://www.w3.org/1999/xlink" x="0px" y="0px" viewBox="0 0 153 153"
	 style="enable-background:new 0 0 153 153;" xml:space="preserve">
<style type="text/css">
	.st0{fill:#0A1320;}
	.st1{fill:#FFFFFF;}
</style>
<path class="st0" d="M118.7,137.7H34.3c-11.6,0-21.1-9.5-21.1-21.1V37c0-11.6,9.5-21.1,21.1-21.1h84.3c11.6,0,21.1,9.5,21.1,21.1
	v79.6C139.7,128.2,130.2,137.7,118.7,137.7z"/>
<path class="st1" d="M42.5,102c0.2,0.2,0.4,0.4,0.7,0.5c8.9,3.5,18,4.4,26.9,0.4c11.2-5.1,12.4-19.8,2.2-26.9
	c-2.8-1.9-6.1-3.1-9.2-4.7c-2.6-1.3-5.4-2.5-7.8-4.2c-2.7-1.9-2.2-5.5,0.8-6.9c1.3-0.6,2.8-1.1,4.2-1.2c5-0.3,10,0,14.6,2.4
	c0.3,0.1,0.6,0.1,1,0.1c0-3.6,0-7,0-10.9c-2.4-0.5-4.7-1.3-7.1-1.6C62.8,48.5,56.7,48.2,51,51c-10.5,5-11.9,19.5-2.5,26.3
	c2.4,1.8,5.3,3,8,4.3c2.6,1.3,5.4,2.5,8,3.8c2.3,1.2,2.9,3.4,2.4,5.8c-0.4,2.1-2.1,3.2-4,3.3c-3.3,0.3-6.6,0.5-9.8,0
	c-3.6-0.7-7-2.3-10.6-3.5C42.5,94.5,42.5,98.2,42.5,102z"/>
<path class="st1" d="M88.7,51.9c-0.4,3.7-0.7,7.3-1.1,11c-1.9,0-3.7,0-5.4,0c0,3.3,0,6.5,0,9.8c1.9,0,3.6,0,5.4,0
	c0,7.2-0.1,14.1,0,21c0,3.8,0.7,7.5,4.2,9.7c5,3.2,10.2,2.3,15.4,0.7c0-2.9,0-5.6,0-8.2c-1.4,0-2.7,0.1-3.9,0
	c-2.5-0.1-3.8-1.2-3.9-3.6c-0.1-6.5,0-13,0-19.7c2.8,0,5.4,0,8.1,0c0-3.3,0-6.5,0-9.8c-2.8,0-5.4,0-7.9,0c0-4.2,0-8.2,0-12.3
	C96.1,50.9,92.5,51.4,88.7,51.9z"/>
</svg>
