<?xml version="1.0" encoding="utf-8"?>
<!-- Generator: Adobe Illustrator 27.9.0, SVG Export Plug-In . SVG Version: 6.00 Build 0)  -->
<svg version="1.1"
	 id="Layer_1" xmlns:dc="http://purl.org/dc/elements/1.1/" xmlns:cc="http://creativecommons.org/ns#" xmlns:rdf="http://www.w3.org/1999/02/22-rdf-syntax-ns#"
	 xmlns="http://www.w3.org/2000/svg" xmlns:xlink="http://www.w3.org/1999/xlink" x="0px" y="0px" viewBox="0 0 153 153"
	 style="enable-background:new 0 0 153 153;" xml:space="preserve">
<style type="text/css">
	.st0{fill:#00FE4E;}
	.st1{fill:#000201;}
</style>
<circle cx="76.5" cy="76.5" r="59.5"/>
<g id="X2y5TJ_00000090262623056581321360000012267954192924105399_">
	<g>
		<g>
			<path class="st0" d="M76.5,17C43.6,17,17,43.6,17,76.5S43.6,136,76.5,136S136,109.4,136,76.5S109.4,17,76.5,17z M94.8,91.5v15.4
				c-2.8,0-6.2,0.2-9.6-0.1c-0.9-0.1-2-1.3-2.5-2.2c-0.6-1.1-0.8-2.5-1.2-4c-0.3,0.3-0.6,0.5-0.7,0.7c-2.3,5.1-6.8,7-11.8,6.8
				c-5.4-0.2-9.5-4.9-10.8-10.5c-2.6-11.3,1-20.1,10.9-26.2c2.9-1.8,5.9-3.5,8.7-5.4c3-2,4.2-4.9,3.6-8.5c-0.4-2.2-1.4-3.6-3.7-3.8
				c-2.3-0.2-4.4,0.3-5.1,2.8c-0.6,2.2-0.7,4.6-1.1,7.3c-3.5,0.2-7.2,0.5-10.8,0.4c-0.7,0-1.9-1.4-1.9-2c0.2-3.4,0.4-6.9,1.3-10.1
				c1.5-5.5,5.3-8.9,10.9-9.8c3.4-0.5,6.9-0.7,10.2-0.3c7.3,0.9,11.7,5.5,12.8,13c0.4,2.3,0.5,4.6,0.6,6.8
				C94.8,71.8,94.8,81.6,94.8,91.5z"/>
			<path class="st1" d="M94.7,61.9c0-2.3-0.2-4.6-0.6-6.8C93,47.6,88.6,43,81.3,42c-3.3-0.4-6.9-0.2-10.2,0.3
				c-5.6,0.9-9.5,4.3-10.9,9.8c-0.9,3.3-1.1,6.7-1.3,10.1c0,0.7,1.2,2,1.9,2c3.6,0,7.3-0.3,10.8-0.4c0.4-2.7,0.5-5.1,1.1-7.3
				c0.7-2.4,2.8-3,5.1-2.8c2.3,0.2,3.4,1.6,3.7,3.8c0.6,3.6-0.6,6.5-3.6,8.5C75,68,72,69.7,69.1,71.5c-9.9,6.1-13.5,14.9-10.9,26.2
				c1.3,5.6,5.4,10.3,10.8,10.5c4.9,0.2,9.5-1.7,11.8-6.8c0.1-0.2,0.4-0.4,0.7-0.7c0.4,1.5,0.6,2.9,1.2,4c0.5,0.9,1.6,2.2,2.5,2.2
				c3.4,0.3,6.8,0.1,9.6,0.1V91.5C94.8,81.6,94.8,71.8,94.7,61.9z M81.5,90.8c0,2.2-2.8,4.6-5.2,4.9c-2.5,0.3-4.6-1.1-5.4-3.7
				c-1.2-4,0-7.5,2.9-10.3c2.3-2.2,4.8-4.3,7.6-6.8C81.6,80.5,81.6,85.7,81.5,90.8z"/>
			<path class="st0" d="M81.6,75c0,5.5,0.1,10.7,0,15.9c0,2.2-2.8,4.6-5.2,4.9c-2.5,0.3-4.6-1.1-5.4-3.7c-1.2-4,0-7.5,2.9-10.3
				C76.3,79.5,78.8,77.4,81.6,75z"/>
		</g>
	</g>
</g>
</svg>
