<?xml version="1.0" encoding="utf-8"?>
<!-- Generator: Adobe Illustrator 27.9.0, SVG Export Plug-In . SVG Version: 6.00 Build 0)  -->
<svg version="1.1"
	 id="Layer_1" xmlns:dc="http://purl.org/dc/elements/1.1/" xmlns:cc="http://creativecommons.org/ns#" xmlns:rdf="http://www.w3.org/1999/02/22-rdf-syntax-ns#"
	 xmlns="http://www.w3.org/2000/svg" xmlns:xlink="http://www.w3.org/1999/xlink" x="0px" y="0px" viewBox="0 0 153 153"
	 style="enable-background:new 0 0 153 153;" xml:space="preserve">
<style type="text/css">
	.st0{fill:#FE682A;}
</style>
<g id="RKtM0L.tif">
	<g>
		<g>
			<path class="st0" d="M71.5,123.3c-1.2-0.4-2.4-1-3.6-1.3c-18.9-4.7-29.8-22-28.3-38.8c1.8-19.9,17.1-34.4,36.1-34.7
				c19.9-0.4,36.2,14.7,37.9,35.3c1.5,18.3-12.6,35.8-31.4,38.8c-0.7,0.1-1.3,0.4-1.9,0.6C77.3,123.3,74.4,123.3,71.5,123.3z
				 M76.7,58.3c-15.2-0.1-27.5,12-27.6,27.3c-0.1,15.3,12,27.7,27.1,27.7c15.2,0.1,27.5-12.1,27.6-27.3
				C103.9,70.7,91.9,58.4,76.7,58.3z"/>
			<path class="st0" d="M136.1,117.7c-9.6,0-19.3,0-29.5,0c8.8-9.2,13.5-19.7,13.4-32.1c-0.1-12.4-4.8-22.7-13.2-32.3
				c6.3,0.3,12.7,0.1,18.8,1.2c5.6,1,8.5,5.7,10.4,10.8C136.1,82.7,136.1,100.2,136.1,117.7z"/>
			<path class="st0" d="M96.4,29.7c7.3,2.4,9.9,7.7,9.3,15.1c-0.2,2.5,0,5.1,0,8c-19.7-14.6-39.1-14.5-58.4,0.1
				c-1-14.1-1.5-19,8.8-23.1C69.5,29.7,82.9,29.7,96.4,29.7z"/>
			<path class="st0" d="M46,117.8c-0.7,0.1-1.2,0.1-1.6,0.1c-9,0-18,0-27.4,0c0-1.1,0-2.1,0-3.1c0-15.1,0-30.1,0-45.2
				c0-9.8,6.1-16,15.8-16.1c4.4-0.1,8.8,0,13.5,0C28.4,75,28.3,96.2,46,117.8z"/>
			<path class="st0" d="M96.8,85.7c0,11.1-9.2,20.5-20.3,20.5c-11.1,0-20.4-9.3-20.4-20.4c0-11.2,9.2-20.5,20.3-20.5
				C87.6,65.3,96.8,74.6,96.8,85.7z M76.8,70.9c-8.1-0.1-14.9,6.4-15.1,14.6c-0.2,8,6.5,15,14.6,15.2c8,0.2,14.9-6.6,15.1-14.7
				C91.5,78,84.8,71,76.8,70.9z"/>
		</g>
	</g>
</g>
</svg>
