<?xml version="1.0" encoding="utf-8"?>
<!-- Generator: Adobe Illustrator 27.9.0, SVG Export Plug-In . SVG Version: 6.00 Build 0)  -->
<svg version="1.1"
	 id="Layer_1" xmlns:dc="http://purl.org/dc/elements/1.1/" xmlns:cc="http://creativecommons.org/ns#" xmlns:rdf="http://www.w3.org/1999/02/22-rdf-syntax-ns#"
	 xmlns="http://www.w3.org/2000/svg" xmlns:xlink="http://www.w3.org/1999/xlink" x="0px" y="0px" viewBox="0 0 153 153"
	 style="enable-background:new 0 0 153 153;" xml:space="preserve">
<style type="text/css">
	.st0{fill:#7D2AE7;}
	.st1{fill:url(#SVGID_1_);}
	.st2{fill:url(#SVGID_00000161600001337635736300000017450852918523832753_);}
	.st3{fill:url(#SVGID_00000177447282976700086470000016560927110805355921_);}
	.st4{fill:url(#SVGID_00000097484726063277563600000005298091843837457566_);}
	.st5{fill:#FFFFFF;}
</style>
<circle class="st0" cx="76.5" cy="76.5" r="59.9"/>
<radialGradient id="SVGID_1_" cx="-30.3403" cy="185.8306" r="6.305218e-02" gradientTransform="matrix(955.9946 -1116.0085 -1116.0085 -955.9946 236433.4219 143915.7344)" gradientUnits="userSpaceOnUse">
	<stop  offset="0" style="stop-color:#6420FF"/>
	<stop  offset="1" style="stop-color:#6420FF;stop-opacity:0"/>
</radialGradient>
<circle class="st1" cx="76.5" cy="76.5" r="59.9"/>
<radialGradient id="SVGID_00000168820552751146933660000004177774123317982115_" cx="-31.224" cy="184.8453" r="6.305218e-02" gradientTransform="matrix(957.5086 1352.488 1352.488 -957.5086 -220055.5156 219251.2188)" gradientUnits="userSpaceOnUse">
	<stop  offset="0" style="stop-color:#00C4CC"/>
	<stop  offset="1" style="stop-color:#00C4CC;stop-opacity:0"/>
</radialGradient>
<circle style="fill:url(#SVGID_00000168820552751146933660000004177774123317982115_);" cx="76.5" cy="76.5" r="59.9"/>
<radialGradient id="SVGID_00000144299417687676102190000006572552429248029368_" cx="-30.3959" cy="186.9299" r="6.305218e-02" gradientTransform="matrix(1023.0002 -1030.0017 -473.7114 -470.4913 119685.6172 56763.8398)" gradientUnits="userSpaceOnUse">
	<stop  offset="0" style="stop-color:#6420FF"/>
	<stop  offset="1" style="stop-color:#6420FF;stop-opacity:0"/>
</radialGradient>
<circle style="fill:url(#SVGID_00000144299417687676102190000006572552429248029368_);" cx="76.5" cy="76.5" r="59.9"/>
<radialGradient id="SVGID_00000099662019038786869900000015831262568273615765_" cx="-31.2991" cy="184.7815" r="6.305218e-02" gradientTransform="matrix(595.9987 1371.9995 2298.406 -998.4311 -405983.1562 227466.7344)" gradientUnits="userSpaceOnUse">
	<stop  offset="0" style="stop-color:#00C4CC;stop-opacity:0.7259"/>
	<stop  offset="1.000000e-04" style="stop-color:#00C4CC"/>
	<stop  offset="1" style="stop-color:#00C4CC;stop-opacity:0"/>
</radialGradient>
<circle style="fill:url(#SVGID_00000099662019038786869900000015831262568273615765_);" cx="76.5" cy="76.5" r="59.9"/>
<path class="st5" d="M102.4,88.8c-0.5,0-0.9,0.4-1.4,1.3c-5.1,10.4-13.9,17.7-24.2,17.7c-11.8,0-19.1-10.7-19.1-25.4
	c0-25,13.9-39.4,26.1-39.4c5.7,0,9.2,3.6,9.2,9.3c0,6.8-3.8,10.4-3.8,12.8c0,1.1,0.7,1.7,2,1.7c5.3,0,11.6-6.1,11.6-14.7
	c0-8.4-7.3-14.5-19.5-14.5c-20.2,0-38.1,18.7-38.1,44.6c0,20,11.4,33.3,29.1,33.3c18.7,0,29.6-18.6,29.6-24.7
	C103.8,89.4,103.1,88.8,102.4,88.8L102.4,88.8z"/>
</svg>
