<?xml version="1.0" encoding="utf-8"?>
<!-- Generator: Adobe Illustrator 27.9.0, SVG Export Plug-In . SVG Version: 6.00 Build 0)  -->
<svg version="1.1"
	 id="Layer_1" xmlns:dc="http://purl.org/dc/elements/1.1/" xmlns:cc="http://creativecommons.org/ns#" xmlns:rdf="http://www.w3.org/1999/02/22-rdf-syntax-ns#"
	 xmlns="http://www.w3.org/2000/svg" xmlns:xlink="http://www.w3.org/1999/xlink" x="0px" y="0px" viewBox="0 0 153 153"
	 style="enable-background:new 0 0 153 153;" xml:space="preserve">
<style type="text/css">
	.st0{fill:#71C618;}
</style>
<g id="_x37_wlJCW.tif">
	<g>
		<g>
			<path class="st0" d="M75.2,19.2c3.5,0,6.9,0,10.4,0c0.4,0.2,0.8,0.4,1.2,0.5c7.3,1,14.2,2.9,20.6,6.6c16.5,9.5,25,24.4,29.5,42.3
				c0.4,1.8,0.8,3.6,1.2,5.3c0,4.6,0,9.1,0,13.7c-0.2,0.5-0.4,0.9-0.5,1.4c-1.6,11.6-6.1,22-13.6,31c-1.2,1.4-2.8,2.5-4.3,3.5
				c-0.7,0.4-2.1,0.6-2.5,0.2c-0.5-0.5-0.8-1.9-0.6-2.6c1.2-4,2.6-8,4.1-11.9c2.3-5.9,4.7-11.8,5.5-18.2c3-23.7-11.7-46.4-34.5-53.1
				c-19.3-5.7-38.8,1.2-49,17.5c-10.3,16.4-9.4,33.2,0.7,49.7c4.3,6.9,10.3,11.4,18.2,13.6c4.8,1.3,9.7,1.7,14.7,1.2
				c15.9-1.6,27.4-15.1,26.8-31.2C102.8,76.4,95,65.2,81.9,64c-7.6-0.7-17.2,5.3-19,12.7c-1.5,6-1,11.8,2.3,17.2
				c2.9,4.7,6.5,6,11.6,3.8c2.4-1,3-3.3,2.2-5.8c-0.6-1.8-0.9-3.9-0.7-5.8c0.2-2.8,2.4-4.3,4.8-5.1c2.5-0.7,4.6,0.4,6.2,2.3
				c2.2,2.7,3,5.8,2.3,9.2c-1.6,7.5-6.3,12.4-13.5,14.5c-8.3,2.4-20.2-2.3-24.8-10.1c-7.3-12.2-6.4-25.9,2.5-36.5
				c6.2-7.3,13.8-11.4,23.7-11.9c7.8-0.4,14.7,1.3,20.6,6c13.5,10.7,18.8,25,16.6,42c-2.6,20.8-23.4,35.9-37.4,38.1
				c-1.9,0.3-3.8,0.8-5.8,1.2c-3.1,0-6.1,0-9.2,0c-0.5-0.1-0.9-0.4-1.4-0.4c-17.3-2.7-30.5-11.1-38.4-27.2
				c-5.7-11.5-7.5-23.5-6.1-36.1c1.4-13,6.1-24.7,15.4-34.1c9.6-9.9,21.7-15,35.1-17.6C71,20,73.1,19.6,75.2,19.2z"/>
		</g>
	</g>
</g>
</svg>
