<?xml version="1.0" encoding="utf-8"?>
<!-- Generator: Adobe Illustrator 27.9.0, SVG Export Plug-In . SVG Version: 6.00 Build 0)  -->
<svg version="1.1"
	 id="Layer_1" xmlns:dc="http://purl.org/dc/elements/1.1/" xmlns:cc="http://creativecommons.org/ns#" xmlns:rdf="http://www.w3.org/1999/02/22-rdf-syntax-ns#"
	 xmlns="http://www.w3.org/2000/svg" xmlns:xlink="http://www.w3.org/1999/xlink" x="0px" y="0px" viewBox="0 0 153 153"
	 style="enable-background:new 0 0 153 153;" xml:space="preserve">
<g id="uRY7qZ.tif">
	<g>
		<g>
			<path d="M120.4,133.3c-29.2,0-58.4,0-87.6,0c-0.3-0.1-0.7-0.2-1-0.3c-5.5-1.1-9.1-4.3-10.8-9.5c-0.3-0.9-0.5-1.8-0.7-2.7
				c0-29.2,0-58.4,0-87.6c0.1-0.2,0.2-0.4,0.2-0.6c1.1-7.1,6.6-11.8,13.8-11.8c28.3,0,56.6,0,84.9,0c7.7,0,13.7,6,13.7,13.7
				c0,28.4,0,56.8,0,85.2c0,6.5-4.3,11.8-10.6,13.3C121.7,133,121.1,133.1,120.4,133.3z M54.5,110.5c14.9,0,29.8,0,44.6,0
				c0-3.9,0-7.7,0-11.7c-10.2,0-20.3,0-30.4,0c0-5.7,0-11.3,0-16.9c10.2,0,20.3,0,30.4,0c0-3.8,0-7.6,0-11.5c-10.2,0-20.3,0-30.4,0
				c0-4.7,0-9.2,0-13.9c10.1,0,20.1,0,30.1,0c0-4,0-7.8,0-11.6c-14.8,0-29.5,0-44.3,0C54.5,66.8,54.5,88.6,54.5,110.5z"/>
		</g>
	</g>
</g>
</svg>
