<?xml version="1.0" encoding="utf-8"?>
<!-- Generator: Adobe Illustrator 27.9.0, SVG Export Plug-In . SVG Version: 6.00 Build 0)  -->
<svg version="1.1"
	 id="Layer_1" xmlns:dc="http://purl.org/dc/elements/1.1/" xmlns:cc="http://creativecommons.org/ns#" xmlns:rdf="http://www.w3.org/1999/02/22-rdf-syntax-ns#"
	 xmlns="http://www.w3.org/2000/svg" xmlns:xlink="http://www.w3.org/1999/xlink" x="0px" y="0px" viewBox="0 0 153 153"
	 style="enable-background:new 0 0 153 153;" xml:space="preserve">
<g id="Ap9kk7_00000090994778806537191290000009399322394449572253_">
	<g>
		<g>
			<path d="M72.3,17c2.8,0,5.6,0,8.4,0c0.4,0.1,0.9,0.3,1.3,0.3c5.9,0.6,11.6,1.8,17,4.2c19,8.2,30.8,22.4,35.5,42.5
				c0.6,2.6,1,5.2,1.4,7.9c0,3.2,0,6.4,0,9.6c-0.4,2.2-0.7,4.4-1.2,6.6c-5.1,22.7-18.8,37.8-40.8,45.2c-4.2,1.4-8.8,1.8-13.3,2.7
				c-2.8,0-5.6,0-8.4,0c-0.4-0.1-0.7-0.2-1.1-0.3c-11.4-1-21.6-5-30.7-11.9c-11-8.4-18.2-19.3-21.6-32.6c-0.8-3.2-1.3-6.5-1.9-9.7
				c0-3.2,0-6.4,0-9.6c0.1-0.5,0.2-1,0.3-1.5c1.2-5,1.9-10.1,3.6-14.8C28,37,41.4,25,60.5,19.3C64.3,18.1,68.3,17.7,72.3,17z
				 M57.6,64.1c-7.3,0-13.3,6.1-13.2,13.4c0.1,7.4,6,13.3,13.4,13.3c7.3,0,13.3-6,13.3-13.3C71,70,65,64.1,57.6,64.1z M99.7,77.5
				c0-7.4-5.7-13.3-13.1-13.4C79.1,64,73.1,70,73,77.5c0,7.3,6,13.3,13.3,13.3C93.7,90.8,99.6,84.9,99.7,77.5z M28,67
				c3.7,0,7.2,0,10.8,0c0.9,0,1.7,0,1.7-1.3c0-1.1-0.6-1.4-1.6-1.4c-4,0-7.9,0-11.9,0c-1.2,0-1.8,0.5-1.8,1.7c0,3.6,0,7.2,0,10.7
				c0,0.5,0.4,1.2,0.8,1.3c0.6,0.1,1.3-0.1,1.9-0.4c0.6-0.4,1.1-1.1,1.7-1.5c3.2-2.3,7.3-1.7,9.4,1.5c2.1,3.1,1.2,7.2-1.9,9.2
				c-3.2,2.1-7.3,1.1-9.3-2.4c-0.6-1.1-1.1-2-2.4-1.1c-1.2,0.8-0.4,1.7,0,2.5c2.5,4.5,8,6.1,12.6,3.7c4.4-2.3,6.2-7.8,4.1-12.2
				c-2.2-4.7-7.6-6.7-12.3-4.6c-0.5,0.2-1.1,0.5-1.7,0.8C28,71.3,28,69.2,28,67z M102.4,76.8c-0.1,0-0.1,0-0.2,0c0,1.9,0,3.8,0,5.7
				c0,1,0.2,1.6,1.4,1.6c1.1,0,1.4-0.6,1.4-1.6c0-3.4,0-6.8,0-10.2c0-0.8,0-1.5,0.2-2.3c0.5-1.8,2.1-3.1,3.9-3.2
				c1.8-0.1,3.6,1.1,4.1,2.8c0.6,1.8-0.1,3.9-1.7,4.9c-0.7,0.4-1.7,0.4-2.5,0.8c-0.6,0.3-0.9,1.1-1.3,1.6c0.5,0.3,1,1,1.5,1
				c3.3,0.2,6.6-2.8,6.9-6.2c0.4-3.8-2.1-7.1-5.9-7.7c-3.6-0.6-7.2,1.9-7.7,5.8C102.2,72.3,102.4,74.5,102.4,76.8z M125.9,71.2
				c1.7-1.6,3-2.9,4.4-4.1c0.7-0.7,1.3-1.5,0.2-2.2c-0.5-0.3-1.6-0.1-2,0.4c-1.4,1.4-2.6,2.9-3.9,4.4c-1.8-1.8-3-3.2-4.5-4.4
				c-0.5-0.4-1.6-0.7-2-0.4c-1.1,0.6-0.5,1.5,0.2,2.2c1.4,1.3,2.9,2.5,4.6,4c-1.9,1.7-3.3,3-4.7,4.3c-0.7,0.6-1,1.3-0.2,2.1
				c0.8,0.9,1.5,0.4,2.1-0.3c1.3-1.5,2.6-2.9,4-4.5c1.8,1.8,3.1,3.2,4.5,4.6c0.6,0.7,1.4,1.2,2,0.2c0.3-0.5,0.1-1.6-0.3-2
				C129.1,74,127.6,72.8,125.9,71.2z"/>
			<path d="M68.1,77.4c0.1,5.6-4.6,10.4-10.3,10.5c-5.6,0.1-10.4-4.7-10.4-10.3C47.3,71.9,52,67,57.6,67
				C63.3,67.1,68,71.7,68.1,77.4z"/>
			<path d="M76,77.4c0-5.7,4.7-10.4,10.4-10.4c5.7,0,10.4,4.8,10.3,10.5c0,5.6-4.7,10.3-10.3,10.3C80.7,87.8,76,83.1,76,77.4z"/>
		</g>
	</g>
</g>
</svg>
