<?xml version="1.0" encoding="utf-8"?>
<!-- Generator: Adobe Illustrator 27.9.0, SVG Export Plug-In . SVG Version: 6.00 Build 0)  -->
<svg version="1.1"
	 id="Layer_1" xmlns:dc="http://purl.org/dc/elements/1.1/" xmlns:cc="http://creativecommons.org/ns#" xmlns:rdf="http://www.w3.org/1999/02/22-rdf-syntax-ns#"
	 xmlns="http://www.w3.org/2000/svg" xmlns:xlink="http://www.w3.org/1999/xlink" x="0px" y="0px" viewBox="0 0 153 153"
	 style="enable-background:new 0 0 153 153;" xml:space="preserve">
<style type="text/css">
	.st0{fill:#18BFB7;}
	.st1{fill:#FDFEFE;}
</style>
<path class="st0" d="M18.6,125.2c0-32.4,0-64.9,0-97.3c0.3-0.6,0.6-1.2,0.8-1.8c1.1-2.9,3-4.9,5.7-6.3c0.9-0.4,1.8-0.8,2.7-1.2
	c32.3,0,64.6,0,96.9,0c1.5,0.6,3,1.1,4.4,1.9c3,1.7,4.2,4.7,5.2,7.7c0,32.3,0,64.6,0,96.9c-0.6,1.3-1.1,2.6-1.8,3.9
	c-1.7,3.1-4.7,4.4-7.9,5.4c-32.3,0-64.6,0-96.9,0c-0.6-0.3-1.2-0.6-1.8-0.8c-2.9-1.1-4.9-3-6.3-5.7C19.3,127,19,126.1,18.6,125.2z
	 M56.8,54c-0.8,0-1.5,0-2.2,0c-4.1,0-8.1-0.1-12.2,0.1c-2.6,0.1-5,1.1-7,3c-2.5,2.4-3.3,5.4-3.3,8.6c0,10.8,0,21.6,0,32.4
	c0,7.5,4.8,12.3,12.3,12.3c20.8,0,41.7,0,62.5,0c1,0,2.1,0,3.1,0c5.7-0.3,10.7-5.1,10.7-10.7c0.1-11.7,0.2-23.4-0.1-35.1
	c-0.1-4.4-2.2-8.1-6.8-9.6c-1.8-0.6-3.8-0.8-5.6-0.9c-4-0.1-8,0-12.1,0c-0.1-0.6-0.1-0.9-0.2-1.2c-1.1-6.5-5.6-10.3-12.2-10.3
	c-5.1,0-10.3-0.2-15.4,0.1c-2.3,0.1-4.7,1-6.6,2.2C58.5,46.7,57.2,50.2,56.8,54z"/>
<path class="st1" d="M56.8,54c0.4-3.9,1.7-7.3,5-9.2c2-1.2,4.4-2,6.6-2.2c5.1-0.3,10.3-0.1,15.4-0.1c6.6,0,11,3.8,12.2,10.3
	c0.1,0.3,0.1,0.6,0.2,1.2c4.1,0,8.1-0.1,12.1,0c1.9,0.1,3.9,0.3,5.6,0.9c4.6,1.5,6.7,5.2,6.8,9.6c0.3,11.7,0.2,23.4,0.1,35.1
	c-0.1,5.7-5.1,10.4-10.7,10.7c-1,0.1-2.1,0-3.1,0c-20.8,0-41.7,0-62.5,0c-7.5,0-12.3-4.8-12.3-12.3c0-10.8,0-21.6,0-32.4
	c0-3.3,0.8-6.3,3.3-8.6c2-1.9,4.4-2.9,7-3c4-0.2,8.1-0.1,12.2-0.1C55.3,54,56,54,56.8,54z M76.4,102.4c9.6,0.2,20.9-7.3,20.3-21.7
	c-0.2-5.9-3.3-10.6-7.6-14.3c-4.6-4-10.2-4.7-15.9-4.1c-7.6,0.7-17.5,8.8-17,21.2C56.6,92.4,64.6,102.5,76.4,102.4z"/>
<path class="st0" d="M76.4,102.4c-11.9,0.1-19.9-10-20.3-18.9c-0.5-12.3,9.5-20.4,17-21.2c5.7-0.6,11.3,0.2,15.9,4.1
	c4.3,3.8,7.4,8.4,7.6,14.3C97.3,95.1,86,102.6,76.4,102.4z M76.5,70.7c-6.4,0-11.8,5.2-11.5,11.5c0.3,7.4,4.2,11.4,11.5,11.5
	c6.3,0.1,11.6-4.7,11.6-11.5C88.1,75.9,82.9,70.7,76.5,70.7z"/>
<path class="st1" d="M76.5,70.7c6.4,0,11.6,5.2,11.6,11.5c0,6.8-5.3,11.6-11.6,11.5c-7.3-0.1-11.2-4.2-11.5-11.5
	C64.7,75.9,70.1,70.7,76.5,70.7z"/>
</svg>
