<?xml version="1.0" encoding="utf-8"?>
<!-- Generator: Adobe Illustrator 27.9.0, SVG Export Plug-In . SVG Version: 6.00 Build 0)  -->
<svg version="1.1"
	 id="Layer_1" xmlns:dc="http://purl.org/dc/elements/1.1/" xmlns:cc="http://creativecommons.org/ns#" xmlns:rdf="http://www.w3.org/1999/02/22-rdf-syntax-ns#"
	 xmlns="http://www.w3.org/2000/svg" xmlns:xlink="http://www.w3.org/1999/xlink" x="0px" y="0px" viewBox="0 0 153 153"
	 style="enable-background:new 0 0 153 153;" xml:space="preserve">
<style type="text/css">
	.st0{fill:#FFFFFF;}
</style>
<rect x="15.3" y="15.3" width="122.4" height="122.4"/>
<path class="st0" d="M116.3,39.3c-2.9,4.1-5.8,8.3-8.8,12.6c-6.7-5-13.9-7.4-22.1-4.6c-3.7,1.3-6.5,3.4-6.9,7.6
	c-0.4,4.1,2,6.5,5.2,8.1c4.8,2.3,9.7,4.3,14.6,6.4c7,3.1,14,6.5,18,13.6c8.2,14.7,0.5,32.5-16.8,37.7c-13.1,3.9-25.2,0.7-36.3-6.8
	c-2.1-1.4-4-3.1-6.2-4.8c3.9-4.1,7.5-7.9,11.2-11.9c4.7,4.8,10,8.3,16.4,9.2c3.2,0.5,6.7,0.4,9.8-0.4c4.2-1.1,7-4.3,7.6-8.8
	c0.6-4.2-1.2-7.8-4.8-9.9c-3.8-2.2-7.9-3.9-11.9-5.8c-4.6-2.2-9.3-4.1-13.7-6.7c-14.8-8.9-13.6-30,0.5-38.8
	C84.8,28,104.7,29.3,116.3,39.3z"/>
<path class="st0" d="M36.2,120.5c0-20.5,0-40.7,0-61c5.4,0,10.7,0,16.3,0c0,20.3,0,40.5,0,61C47.1,120.5,41.8,120.5,36.2,120.5z"/>
<path class="st0" d="M33.4,41.7c0-6.2,4.7-11,10.9-11c5.9,0,10.8,4.9,10.8,10.8c0.1,5.8-4.8,10.9-10.6,11.1
	C38.6,52.7,33.5,47.7,33.4,41.7z"/>
</svg>
