<?xml version="1.0" encoding="utf-8"?>
<!-- Generator: Adobe Illustrator 27.8.1, SVG Export Plug-In . SVG Version: 6.00 Build 0)  -->
<svg version="1.1"
	 id="Layer_1" xmlns:cc="http://creativecommons.org/ns#" xmlns:rdf="http://www.w3.org/1999/02/22-rdf-syntax-ns#" xmlns:dc="http://purl.org/dc/elements/1.1/"
	 xmlns="http://www.w3.org/2000/svg" xmlns:xlink="http://www.w3.org/1999/xlink" x="0px" y="0px" viewBox="0 0 153 153"
	 style="enable-background:new 0 0 153 153;" xml:space="preserve">
<style type="text/css">
	.st0{fill:#FE0000;}
</style>
<g id="_x30_Ktofd.tif">
	<g>
		<g>
			<path class="st0" d="M135.2,23.7c0,35.4,0,70.7,0,106.1c-0.1,0-0.2,0.1-0.2,0.1c-1.7,4-3.4,5.1-7.7,5.1c-33.8,0-67.5,0-101.3,0
				c-4.9,0-7.6-2.7-7.6-7.6c0-17.4,0-34.8,0-52.2c0-16.5,0-33.1,0-49.6c0-2.5,0.7-4.6,2.8-6c0.8-0.6,1.8-0.9,2.7-1.3
				c35.3,0,70.5,0,105.8,0c0.6,0.2,1.2,0.4,1.7,0.7C133.5,19.9,134.6,21.7,135.2,23.7z M71.6,34.9c-0.2,0-0.3-0.1-0.5-0.1
				c-6.3,0-12.6-0.1-18.9,0.1c-9,0.2-17,8-17.4,17c-0.2,6.1-0.1,12.2-0.1,18.2c0,0.3,0,0.5,0.1,0.8c5.1,0,10.1,0,15.2,0
				c0-0.5,0-0.9,0-1.3c0-5.1,0-10.3,0-15.4c0-3,1.2-4.2,4.2-4.2c5.4,0,10.8,0,16.2,0c0.4,0,0.8,0,1.2,0
				C71.6,44.9,71.6,39.9,71.6,34.9z M103.7,82.3c0,0.5,0,0.9,0,1.3c0,5.2,0,10.3,0,15.5c0,2.9-1.2,4.1-4.1,4.1c-5.4,0-10.9,0-16.3,0
				c-0.4,0-0.8,0-1.2,0c0,5.2,0,10.2,0,15.3c6,0,11.9,0,17.8,0c1.2,0,2.4-0.1,3.6-0.3c8.2-1.2,15-8.6,15.3-16.8
				c0.2-6.2,0.1-12.4,0.1-18.6c0-0.1,0-0.3-0.1-0.5C113.8,82.3,108.8,82.3,103.7,82.3z"/>
		</g>
	</g>
</g>
</svg>
