<?xml version="1.0" encoding="utf-8"?>
<!-- Generator: Adobe Illustrator 27.9.0, SVG Export Plug-In . SVG Version: 6.00 Build 0)  -->
<svg version="1.1"
	 id="Layer_1" xmlns:dc="http://purl.org/dc/elements/1.1/" xmlns:cc="http://creativecommons.org/ns#" xmlns:rdf="http://www.w3.org/1999/02/22-rdf-syntax-ns#"
	 xmlns="http://www.w3.org/2000/svg" xmlns:xlink="http://www.w3.org/1999/xlink" x="0px" y="0px" viewBox="0 0 153 153"
	 style="enable-background:new 0 0 153 153;" xml:space="preserve">
<style type="text/css">
	.st0{fill:#313A46;}
</style>
<g id="JHGYTK.tif">
	<g>
		<g>
			<path class="st0" d="M67.2,13c5.9,0,11.9,0,17.8,0c0.2,0.2,0.5,0.7,0.8,0.7c25.6,3.2,48.3,24.1,53,51.3c0.3,1.5,0.8,3,1.3,4.6
				c0,4.6,0,9.3,0,13.9c-0.4,1.3-1,2.5-1.3,3.8c-5.8,27.2-22.3,44.1-49.2,50.8c-3.5,0.9-7.1,1.3-10.7,1.9c-2.1,0-4.1,0-6.2,0
				c-0.8-0.3-1.5-0.7-2.3-0.8c-28.2-2.9-50.3-23-56-50.8C14,87.2,13.4,86.1,13,85c0-5.9,0-11.9,0-17.8c0.5-1.2,1.1-2.5,1.4-3.7
				c6.4-26.6,23-42.9,49.4-49.4C65,13.8,66.1,13.4,67.2,13z M52.6,122.9c7.4,4,15.3,5.8,23.5,5.9c20.5,0.2,40.4-12.6,48.3-31
				c8.8-20.4,4.8-42.7-10.3-58.4c-1.9-2-3.3-2.1-5.6-0.8c-14,7.7-28,15.3-42,22.9c-1,0.5-2.3,1.2-2.7,2.1c-0.8,2-2.1,4.6-1.4,6.2
				c0.7,1.6,3.5,3,5.5,3.1c2.3,0.1,4.7-1.1,6.9-2.1c8.9-3.9,17.9-1.9,22.8,5.2c5.5,8,2.9,18-6.5,23.8
				C78.4,107.5,65.6,115.1,52.6,122.9z M42.7,116.2c14.2-8.5,28.7-17.2,43.1-25.9c0.8-0.5,1.7-1.1,2-1.8c0.7-1.7,1.8-3.8,1.2-5.2
				c-0.6-1.6-2.7-3.1-4.5-3.6c-1.7-0.4-3.8,0.3-5.6,0.8c-2.1,0.6-4,1.8-6.1,2.4c-8.4,2.4-17-1.2-20.4-8.3c-3.5-7.5-1.2-15.9,6.2-21
				c3.2-2.2,6.7-3.9,10-5.7c10.7-5.9,21.4-11.7,32.2-17.6c-14.8-10.2-46-11-65.2,12.5C17.5,65.2,20.6,98.4,42.7,116.2z"/>
		</g>
	</g>
</g>
</svg>
